<svg xmlns="http://www.w3.org/2000/svg" width="417.751" height="358.908" viewBox="0 0 417.751 358.908">
  <g id="Group_79" data-name="Group 79" transform="translate(-1211 -1049.444)" opacity="0.5">
    <g id="Group_50" data-name="Group 50" transform="translate(226.751 -438)">
      <g id="Ellipse_7" data-name="Ellipse 7" transform="translate(1402 1846.351) rotate(180)" fill="#949494" stroke="#949494" stroke-width="1">
        <circle cx="0.875" cy="0.875" r="0.875" stroke="none"/>
        <circle cx="0.875" cy="0.875" r="0.375" fill="none"/>
      </g>
      <g id="Ellipse_7-2" data-name="Ellipse 7" transform="translate(1402 1786.825) rotate(180)" fill="#949494" stroke="#949494" stroke-width="1">
        <circle cx="0.875" cy="0.875" r="0.875" stroke="none"/>
        <circle cx="0.875" cy="0.875" r="0.375" fill="none"/>
      </g>
      <g id="Ellipse_7-3" data-name="Ellipse 7" transform="translate(1402 1727.299) rotate(180)" fill="#949494" stroke="#949494" stroke-width="1">
        <circle cx="0.875" cy="0.875" r="0.875" stroke="none"/>
        <circle cx="0.875" cy="0.875" r="0.375" fill="none"/>
      </g>
      <g id="Ellipse_7-4" data-name="Ellipse 7" transform="translate(1402 1667.773) rotate(180)" fill="#949494" stroke="#949494" stroke-width="1">
        <circle cx="0.875" cy="0.875" r="0.875" stroke="none"/>
        <circle cx="0.875" cy="0.875" r="0.375" fill="none"/>
      </g>
      <g id="Ellipse_7-5" data-name="Ellipse 7" transform="translate(1402 1608.247) rotate(180)" fill="#949494" stroke="#949494" stroke-width="1">
        <circle cx="0.875" cy="0.875" r="0.875" stroke="none"/>
        <circle cx="0.875" cy="0.875" r="0.375" fill="none"/>
      </g>
      <g id="Ellipse_7-6" data-name="Ellipse 7" transform="translate(1402 1548.721) rotate(180)" fill="#949494" stroke="#949494" stroke-width="1">
        <circle cx="0.875" cy="0.875" r="0.875" stroke="none"/>
        <circle cx="0.875" cy="0.875" r="0.375" fill="none"/>
      </g>
      <g id="Ellipse_7-7" data-name="Ellipse 7" transform="translate(1402 1489.194) rotate(180)" fill="#949494" stroke="#949494" stroke-width="1">
        <circle cx="0.875" cy="0.875" r="0.875" stroke="none"/>
        <circle cx="0.875" cy="0.875" r="0.375" fill="none"/>
      </g>
    </g>
    <g id="Group_49" data-name="Group 49" transform="translate(227.277 -438)">
      <g id="Ellipse_7-8" data-name="Ellipse 7" transform="translate(1342.474 1846.351) rotate(180)" fill="#949494" stroke="#949494" stroke-width="1">
        <circle cx="0.875" cy="0.875" r="0.875" stroke="none"/>
        <circle cx="0.875" cy="0.875" r="0.375" fill="none"/>
      </g>
      <g id="Ellipse_7-9" data-name="Ellipse 7" transform="translate(1342.474 1786.825) rotate(180)" fill="#949494" stroke="#949494" stroke-width="1">
        <circle cx="0.875" cy="0.875" r="0.875" stroke="none"/>
        <circle cx="0.875" cy="0.875" r="0.375" fill="none"/>
      </g>
      <g id="Ellipse_7-10" data-name="Ellipse 7" transform="translate(1342.474 1727.299) rotate(180)" fill="#949494" stroke="#949494" stroke-width="1">
        <circle cx="0.875" cy="0.875" r="0.875" stroke="none"/>
        <circle cx="0.875" cy="0.875" r="0.375" fill="none"/>
      </g>
      <g id="Ellipse_7-11" data-name="Ellipse 7" transform="translate(1342.474 1667.773) rotate(180)" fill="#949494" stroke="#949494" stroke-width="1">
        <circle cx="0.875" cy="0.875" r="0.875" stroke="none"/>
        <circle cx="0.875" cy="0.875" r="0.375" fill="none"/>
      </g>
      <g id="Ellipse_7-12" data-name="Ellipse 7" transform="translate(1342.474 1608.247) rotate(180)" fill="#949494" stroke="#949494" stroke-width="1">
        <circle cx="0.875" cy="0.875" r="0.875" stroke="none"/>
        <circle cx="0.875" cy="0.875" r="0.375" fill="none"/>
      </g>
      <g id="Ellipse_7-13" data-name="Ellipse 7" transform="translate(1342.474 1548.721) rotate(180)" fill="#949494" stroke="#949494" stroke-width="1">
        <circle cx="0.875" cy="0.875" r="0.875" stroke="none"/>
        <circle cx="0.875" cy="0.875" r="0.375" fill="none"/>
      </g>
      <g id="Ellipse_7-14" data-name="Ellipse 7" transform="translate(1342.474 1489.194) rotate(180)" fill="#949494" stroke="#949494" stroke-width="1">
        <circle cx="0.875" cy="0.875" r="0.875" stroke="none"/>
        <circle cx="0.875" cy="0.875" r="0.375" fill="none"/>
      </g>
    </g>
    <g id="Group_48" data-name="Group 48" transform="translate(226.803 -438)">
      <g id="Ellipse_7-15" data-name="Ellipse 7" transform="translate(1282.948 1846.351) rotate(180)" fill="#949494" stroke="#949494" stroke-width="1">
        <circle cx="0.875" cy="0.875" r="0.875" stroke="none"/>
        <circle cx="0.875" cy="0.875" r="0.375" fill="none"/>
      </g>
      <g id="Ellipse_7-16" data-name="Ellipse 7" transform="translate(1282.948 1786.825) rotate(180)" fill="#949494" stroke="#949494" stroke-width="1">
        <circle cx="0.875" cy="0.875" r="0.875" stroke="none"/>
        <circle cx="0.875" cy="0.875" r="0.375" fill="none"/>
      </g>
      <g id="Ellipse_7-17" data-name="Ellipse 7" transform="translate(1282.948 1727.299) rotate(180)" fill="#949494" stroke="#949494" stroke-width="1">
        <circle cx="0.875" cy="0.875" r="0.875" stroke="none"/>
        <circle cx="0.875" cy="0.875" r="0.375" fill="none"/>
      </g>
      <g id="Ellipse_7-18" data-name="Ellipse 7" transform="translate(1282.948 1667.773) rotate(180)" fill="#949494" stroke="#949494" stroke-width="1">
        <circle cx="0.875" cy="0.875" r="0.875" stroke="none"/>
        <circle cx="0.875" cy="0.875" r="0.375" fill="none"/>
      </g>
      <g id="Ellipse_7-19" data-name="Ellipse 7" transform="translate(1282.948 1608.247) rotate(180)" fill="#949494" stroke="#949494" stroke-width="1">
        <circle cx="0.875" cy="0.875" r="0.875" stroke="none"/>
        <circle cx="0.875" cy="0.875" r="0.375" fill="none"/>
      </g>
      <g id="Ellipse_7-20" data-name="Ellipse 7" transform="translate(1282.948 1548.721) rotate(180)" fill="#949494" stroke="#949494" stroke-width="1">
        <circle cx="0.875" cy="0.875" r="0.875" stroke="none"/>
        <circle cx="0.875" cy="0.875" r="0.375" fill="none"/>
      </g>
      <g id="Ellipse_7-21" data-name="Ellipse 7" transform="translate(1282.948 1489.194) rotate(180)" fill="#949494" stroke="#949494" stroke-width="1">
        <circle cx="0.875" cy="0.875" r="0.875" stroke="none"/>
        <circle cx="0.875" cy="0.875" r="0.375" fill="none"/>
      </g>
    </g>
    <g id="Group_47" data-name="Group 47" transform="translate(227.329 -438)">
      <g id="Ellipse_7-22" data-name="Ellipse 7" transform="translate(1223.421 1846.351) rotate(180)" fill="#949494" stroke="#949494" stroke-width="1">
        <circle cx="0.875" cy="0.875" r="0.875" stroke="none"/>
        <circle cx="0.875" cy="0.875" r="0.375" fill="none"/>
      </g>
      <g id="Ellipse_7-23" data-name="Ellipse 7" transform="translate(1223.421 1786.825) rotate(180)" fill="#949494" stroke="#949494" stroke-width="1">
        <circle cx="0.875" cy="0.875" r="0.875" stroke="none"/>
        <circle cx="0.875" cy="0.875" r="0.375" fill="none"/>
      </g>
      <g id="Ellipse_7-24" data-name="Ellipse 7" transform="translate(1223.421 1727.299) rotate(180)" fill="#949494" stroke="#949494" stroke-width="1">
        <circle cx="0.875" cy="0.875" r="0.875" stroke="none"/>
        <circle cx="0.875" cy="0.875" r="0.375" fill="none"/>
      </g>
      <g id="Ellipse_7-25" data-name="Ellipse 7" transform="translate(1223.421 1667.773) rotate(180)" fill="#949494" stroke="#949494" stroke-width="1">
        <circle cx="0.875" cy="0.875" r="0.875" stroke="none"/>
        <circle cx="0.875" cy="0.875" r="0.375" fill="none"/>
      </g>
      <g id="Ellipse_7-26" data-name="Ellipse 7" transform="translate(1223.421 1608.247) rotate(180)" fill="#949494" stroke="#949494" stroke-width="1">
        <circle cx="0.875" cy="0.875" r="0.875" stroke="none"/>
        <circle cx="0.875" cy="0.875" r="0.375" fill="none"/>
      </g>
      <g id="Ellipse_7-27" data-name="Ellipse 7" transform="translate(1223.421 1548.721) rotate(180)" fill="#949494" stroke="#949494" stroke-width="1">
        <circle cx="0.875" cy="0.875" r="0.875" stroke="none"/>
        <circle cx="0.875" cy="0.875" r="0.375" fill="none"/>
      </g>
      <g id="Ellipse_7-28" data-name="Ellipse 7" transform="translate(1223.421 1489.194) rotate(180)" fill="#949494" stroke="#949494" stroke-width="1">
        <circle cx="0.875" cy="0.875" r="0.875" stroke="none"/>
        <circle cx="0.875" cy="0.875" r="0.375" fill="none"/>
      </g>
    </g>
    <g id="Group_46" data-name="Group 46" transform="translate(226.856 -438)">
      <g id="Ellipse_7-29" data-name="Ellipse 7" transform="translate(1163.895 1846.351) rotate(180)" fill="#949494" stroke="#949494" stroke-width="1">
        <circle cx="0.875" cy="0.875" r="0.875" stroke="none"/>
        <circle cx="0.875" cy="0.875" r="0.375" fill="none"/>
      </g>
      <g id="Ellipse_7-30" data-name="Ellipse 7" transform="translate(1163.895 1786.825) rotate(180)" fill="#949494" stroke="#949494" stroke-width="1">
        <circle cx="0.875" cy="0.875" r="0.875" stroke="none"/>
        <circle cx="0.875" cy="0.875" r="0.375" fill="none"/>
      </g>
      <g id="Ellipse_7-31" data-name="Ellipse 7" transform="translate(1163.895 1727.299) rotate(180)" fill="#949494" stroke="#949494" stroke-width="1">
        <circle cx="0.875" cy="0.875" r="0.875" stroke="none"/>
        <circle cx="0.875" cy="0.875" r="0.375" fill="none"/>
      </g>
      <g id="Ellipse_7-32" data-name="Ellipse 7" transform="translate(1163.895 1667.773) rotate(180)" fill="#949494" stroke="#949494" stroke-width="1">
        <circle cx="0.875" cy="0.875" r="0.875" stroke="none"/>
        <circle cx="0.875" cy="0.875" r="0.375" fill="none"/>
      </g>
      <g id="Ellipse_7-33" data-name="Ellipse 7" transform="translate(1163.895 1608.247) rotate(180)" fill="#949494" stroke="#949494" stroke-width="1">
        <circle cx="0.875" cy="0.875" r="0.875" stroke="none"/>
        <circle cx="0.875" cy="0.875" r="0.375" fill="none"/>
      </g>
      <g id="Ellipse_7-34" data-name="Ellipse 7" transform="translate(1163.895 1548.721) rotate(180)" fill="#949494" stroke="#949494" stroke-width="1">
        <circle cx="0.875" cy="0.875" r="0.875" stroke="none"/>
        <circle cx="0.875" cy="0.875" r="0.375" fill="none"/>
      </g>
      <g id="Ellipse_7-35" data-name="Ellipse 7" transform="translate(1163.895 1489.194) rotate(180)" fill="#949494" stroke="#949494" stroke-width="1">
        <circle cx="0.875" cy="0.875" r="0.875" stroke="none"/>
        <circle cx="0.875" cy="0.875" r="0.375" fill="none"/>
      </g>
    </g>
    <g id="Group_45" data-name="Group 45" transform="translate(227.382 -438)">
      <g id="Ellipse_7-36" data-name="Ellipse 7" transform="translate(1104.369 1846.351) rotate(180)" fill="#949494" stroke="#949494" stroke-width="1">
        <circle cx="0.875" cy="0.875" r="0.875" stroke="none"/>
        <circle cx="0.875" cy="0.875" r="0.375" fill="none"/>
      </g>
      <g id="Ellipse_7-37" data-name="Ellipse 7" transform="translate(1104.369 1786.825) rotate(180)" fill="#949494" stroke="#949494" stroke-width="1">
        <circle cx="0.875" cy="0.875" r="0.875" stroke="none"/>
        <circle cx="0.875" cy="0.875" r="0.375" fill="none"/>
      </g>
      <g id="Ellipse_7-38" data-name="Ellipse 7" transform="translate(1104.369 1727.299) rotate(180)" fill="#949494" stroke="#949494" stroke-width="1">
        <circle cx="0.875" cy="0.875" r="0.875" stroke="none"/>
        <circle cx="0.875" cy="0.875" r="0.375" fill="none"/>
      </g>
      <g id="Ellipse_7-39" data-name="Ellipse 7" transform="translate(1104.369 1667.773) rotate(180)" fill="#949494" stroke="#949494" stroke-width="1">
        <circle cx="0.875" cy="0.875" r="0.875" stroke="none"/>
        <circle cx="0.875" cy="0.875" r="0.375" fill="none"/>
      </g>
      <g id="Ellipse_7-40" data-name="Ellipse 7" transform="translate(1104.369 1608.247) rotate(180)" fill="#949494" stroke="#949494" stroke-width="1">
        <circle cx="0.875" cy="0.875" r="0.875" stroke="none"/>
        <circle cx="0.875" cy="0.875" r="0.375" fill="none"/>
      </g>
      <g id="Ellipse_7-41" data-name="Ellipse 7" transform="translate(1104.369 1548.721) rotate(180)" fill="#949494" stroke="#949494" stroke-width="1">
        <circle cx="0.875" cy="0.875" r="0.875" stroke="none"/>
        <circle cx="0.875" cy="0.875" r="0.375" fill="none"/>
      </g>
      <g id="Ellipse_7-42" data-name="Ellipse 7" transform="translate(1104.369 1489.194) rotate(180)" fill="#949494" stroke="#949494" stroke-width="1">
        <circle cx="0.875" cy="0.875" r="0.875" stroke="none"/>
        <circle cx="0.875" cy="0.875" r="0.375" fill="none"/>
      </g>
    </g>
    <g id="Group_44" data-name="Group 44" transform="translate(226.908 -438)">
      <g id="Ellipse_7-43" data-name="Ellipse 7" transform="translate(1044.843 1846.351) rotate(180)" fill="#949494" stroke="#949494" stroke-width="1">
        <circle cx="0.875" cy="0.875" r="0.875" stroke="none"/>
        <circle cx="0.875" cy="0.875" r="0.375" fill="none"/>
      </g>
      <g id="Ellipse_7-44" data-name="Ellipse 7" transform="translate(1044.843 1786.825) rotate(180)" fill="#949494" stroke="#949494" stroke-width="1">
        <circle cx="0.875" cy="0.875" r="0.875" stroke="none"/>
        <circle cx="0.875" cy="0.875" r="0.375" fill="none"/>
      </g>
      <g id="Ellipse_7-45" data-name="Ellipse 7" transform="translate(1044.843 1727.299) rotate(180)" fill="#949494" stroke="#949494" stroke-width="1">
        <circle cx="0.875" cy="0.875" r="0.875" stroke="none"/>
        <circle cx="0.875" cy="0.875" r="0.375" fill="none"/>
      </g>
      <g id="Ellipse_7-46" data-name="Ellipse 7" transform="translate(1044.843 1667.773) rotate(180)" fill="#949494" stroke="#949494" stroke-width="1">
        <circle cx="0.875" cy="0.875" r="0.875" stroke="none"/>
        <circle cx="0.875" cy="0.875" r="0.375" fill="none"/>
      </g>
      <g id="Ellipse_7-47" data-name="Ellipse 7" transform="translate(1044.843 1608.247) rotate(180)" fill="#949494" stroke="#949494" stroke-width="1">
        <circle cx="0.875" cy="0.875" r="0.875" stroke="none"/>
        <circle cx="0.875" cy="0.875" r="0.375" fill="none"/>
      </g>
      <g id="Ellipse_7-48" data-name="Ellipse 7" transform="translate(1044.843 1548.721) rotate(180)" fill="#949494" stroke="#949494" stroke-width="1">
        <circle cx="0.875" cy="0.875" r="0.875" stroke="none"/>
        <circle cx="0.875" cy="0.875" r="0.375" fill="none"/>
      </g>
      <g id="Ellipse_7-49" data-name="Ellipse 7" transform="translate(1044.843 1489.194) rotate(180)" fill="#949494" stroke="#949494" stroke-width="1">
        <circle cx="0.875" cy="0.875" r="0.875" stroke="none"/>
        <circle cx="0.875" cy="0.875" r="0.375" fill="none"/>
      </g>
    </g>
    <g id="Group_39" data-name="Group 39" transform="translate(227.434 -438)">
      <g id="Ellipse_7-50" data-name="Ellipse 7" transform="translate(985.317 1846.351) rotate(180)" fill="#949494" stroke="#949494" stroke-width="1">
        <circle cx="0.875" cy="0.875" r="0.875" stroke="none"/>
        <circle cx="0.875" cy="0.875" r="0.375" fill="none"/>
      </g>
      <g id="Ellipse_7-51" data-name="Ellipse 7" transform="translate(985.317 1786.825) rotate(180)" fill="#949494" stroke="#949494" stroke-width="1">
        <circle cx="0.875" cy="0.875" r="0.875" stroke="none"/>
        <circle cx="0.875" cy="0.875" r="0.375" fill="none"/>
      </g>
      <g id="Ellipse_7-52" data-name="Ellipse 7" transform="translate(985.317 1727.299) rotate(180)" fill="#949494" stroke="#949494" stroke-width="1">
        <circle cx="0.875" cy="0.875" r="0.875" stroke="none"/>
        <circle cx="0.875" cy="0.875" r="0.375" fill="none"/>
      </g>
      <g id="Ellipse_7-53" data-name="Ellipse 7" transform="translate(985.317 1667.773) rotate(180)" fill="#949494" stroke="#949494" stroke-width="1">
        <circle cx="0.875" cy="0.875" r="0.875" stroke="none"/>
        <circle cx="0.875" cy="0.875" r="0.375" fill="none"/>
      </g>
      <g id="Ellipse_7-54" data-name="Ellipse 7" transform="translate(985.317 1608.247) rotate(180)" fill="#949494" stroke="#949494" stroke-width="1">
        <circle cx="0.875" cy="0.875" r="0.875" stroke="none"/>
        <circle cx="0.875" cy="0.875" r="0.375" fill="none"/>
      </g>
      <g id="Ellipse_7-55" data-name="Ellipse 7" transform="translate(985.317 1548.721) rotate(180)" fill="#949494" stroke="#949494" stroke-width="1">
        <circle cx="0.875" cy="0.875" r="0.875" stroke="none"/>
        <circle cx="0.875" cy="0.875" r="0.375" fill="none"/>
      </g>
      <g id="Ellipse_7-56" data-name="Ellipse 7" transform="translate(985.317 1489.194) rotate(180)" fill="#949494" stroke="#949494" stroke-width="1">
        <circle cx="0.875" cy="0.875" r="0.875" stroke="none"/>
        <circle cx="0.875" cy="0.875" r="0.375" fill="none"/>
      </g>
    </g>
  </g>
</svg>
