<?xml version="1.0" encoding="utf-8"?>
<!-- Generator: Adobe Illustrator 23.0.1, SVG Export Plug-In . SVG Version: 6.00 Build 0)  -->
<svg version="1.1" id="Layer_1" xmlns="http://www.w3.org/2000/svg" xmlns:xlink="http://www.w3.org/1999/xlink" x="0px" y="0px"
	 viewBox="0 0 170 170" style="enable-background:new 0 0 170 170;" xml:space="preserve">
<style type="text/css">
	.st0{fill:url(#Ellipse_12_1_);}
	.st1{enable-background:new    ;}
	.st2{fill:#FFFFFF;}
</style>
<g>
	
		<linearGradient id="Ellipse_12_1_" gradientUnits="userSpaceOnUse" x1="-217.8441" y1="480.1988" x2="-218.5991" y2="479.1088" gradientTransform="matrix(170 0 0 -170 37180 81630)">
		<stop  offset="0" style="stop-color:#FFB199"/>
		<stop  offset="1" style="stop-color:#FF0844"/>
	</linearGradient>
	<circle id="Ellipse_12" class="st0" cx="85" cy="85" r="85"/>
	<g class="st1">
		<path class="st2" d="M63,72.6v11.4h13.5c0.8,0,1.4,0.2,1.9,0.7c0.5,0.5,0.7,1.1,0.7,1.9c0,0.7-0.2,1.2-0.7,1.7
			c-0.5,0.5-1.1,0.7-1.9,0.7H63v14.4c0,0.7-0.3,1.4-0.8,1.9c-0.5,0.5-1.2,0.8-1.9,0.8c-0.8,0-1.4-0.3-1.9-0.8
			c-0.5-0.5-0.8-1.1-0.8-1.9V70.1c0-0.7,0.3-1.4,0.8-1.9c0.5-0.5,1.1-0.8,1.9-0.8H79c0.8,0,1.4,0.2,1.9,0.7c0.5,0.5,0.7,1.1,0.7,1.9
			c0,0.7-0.3,1.2-0.8,1.7c-0.5,0.5-1.1,0.7-1.9,0.7H63z"/>
		<path class="st2" d="M112.1,77.5c0.5,0.5,0.7,1.1,0.7,2v23.9c0,0.7-0.2,1.4-0.7,1.9c-0.5,0.5-1.1,0.8-1.9,0.8s-1.4-0.2-1.9-0.7
			s-0.7-1.1-0.7-1.9v-1.4c-1,1.3-2.3,2.4-3.9,3.3c-1.7,0.9-3.4,1.3-5.3,1.3c-2.5,0-4.8-0.6-6.8-1.9c-2-1.3-3.6-3.1-4.8-5.4
			c-1.2-2.3-1.7-4.9-1.7-7.7c0-2.9,0.6-5.4,1.7-7.7c1.2-2.3,2.7-4.1,4.8-5.4c2-1.3,4.2-1.9,6.7-1.9c1.9,0,3.7,0.4,5.4,1.2
			c1.7,0.8,3,1.8,4,3.1v-1.3c0-0.8,0.2-1.4,0.7-1.9s1.1-0.8,1.9-0.8S111.6,77,112.1,77.5z M103.6,100.4c1.3-0.9,2.4-2.1,3.1-3.6
			c0.8-1.5,1.1-3.3,1.1-5.2c0-1.9-0.4-3.6-1.1-5.2c-0.8-1.5-1.8-2.8-3.1-3.7c-1.3-0.9-2.9-1.3-4.6-1.3c-1.7,0-3.3,0.4-4.6,1.3
			s-2.4,2.1-3.1,3.6c-0.8,1.5-1.1,3.3-1.1,5.2s0.4,3.7,1.1,5.2c0.8,1.5,1.8,2.8,3.1,3.6s2.9,1.3,4.6,1.3
			C100.7,101.7,102.2,101.3,103.6,100.4z"/>
	</g>
</g>
</svg>
