<svg xmlns="http://www.w3.org/2000/svg" width="537.486" height="358.908" viewBox="0 0 537.486 358.908">
  <g id="Group_30" data-name="Group 30" transform="translate(-79.154 520.753) rotate(-90)" opacity="0.496">
    <g id="Ellipse_7" data-name="Ellipse 7" transform="translate(161.846 616.641) rotate(-90)" fill="#949494" stroke="#949494" stroke-width="1">
      <circle cx="0.875" cy="0.875" r="0.875" stroke="none"/>
      <circle cx="0.875" cy="0.875" r="0.375" fill="none"/>
    </g>
    <g id="Ellipse_7-2" data-name="Ellipse 7" transform="translate(221.372 616.641) rotate(-90)" fill="#949494" stroke="#949494" stroke-width="1">
      <circle cx="0.875" cy="0.875" r="0.875" stroke="none"/>
      <circle cx="0.875" cy="0.875" r="0.375" fill="none"/>
    </g>
    <g id="Ellipse_7-3" data-name="Ellipse 7" transform="translate(280.898 616.641) rotate(-90)" fill="#949494" stroke="#949494" stroke-width="1">
      <circle cx="0.875" cy="0.875" r="0.875" stroke="none"/>
      <circle cx="0.875" cy="0.875" r="0.375" fill="none"/>
    </g>
    <g id="Ellipse_7-4" data-name="Ellipse 7" transform="translate(340.424 616.641) rotate(-90)" fill="#949494" stroke="#949494" stroke-width="1">
      <circle cx="0.875" cy="0.875" r="0.875" stroke="none"/>
      <circle cx="0.875" cy="0.875" r="0.375" fill="none"/>
    </g>
    <g id="Ellipse_7-5" data-name="Ellipse 7" transform="translate(399.95 616.641) rotate(-90)" fill="#949494" stroke="#949494" stroke-width="1">
      <circle cx="0.875" cy="0.875" r="0.875" stroke="none"/>
      <circle cx="0.875" cy="0.875" r="0.375" fill="none"/>
    </g>
    <g id="Ellipse_7-6" data-name="Ellipse 7" transform="translate(459.476 616.641) rotate(-90)" fill="#949494" stroke="#949494" stroke-width="1">
      <circle cx="0.875" cy="0.875" r="0.875" stroke="none"/>
      <circle cx="0.875" cy="0.875" r="0.375" fill="none"/>
    </g>
    <g id="Ellipse_7-7" data-name="Ellipse 7" transform="translate(519.003 616.641) rotate(-90)" fill="#949494" stroke="#949494" stroke-width="1">
      <circle cx="0.875" cy="0.875" r="0.875" stroke="none"/>
      <circle cx="0.875" cy="0.875" r="0.375" fill="none"/>
    </g>
    <g id="Ellipse_7-8" data-name="Ellipse 7" transform="translate(161.846 557.114) rotate(-90)" fill="#949494" stroke="#949494" stroke-width="1">
      <circle cx="0.875" cy="0.875" r="0.875" stroke="none"/>
      <circle cx="0.875" cy="0.875" r="0.375" fill="none"/>
    </g>
    <g id="Ellipse_7-9" data-name="Ellipse 7" transform="translate(221.372 557.114) rotate(-90)" fill="#949494" stroke="#949494" stroke-width="1">
      <circle cx="0.875" cy="0.875" r="0.875" stroke="none"/>
      <circle cx="0.875" cy="0.875" r="0.375" fill="none"/>
    </g>
    <g id="Ellipse_7-10" data-name="Ellipse 7" transform="translate(280.898 557.114) rotate(-90)" fill="#949494" stroke="#949494" stroke-width="1">
      <circle cx="0.875" cy="0.875" r="0.875" stroke="none"/>
      <circle cx="0.875" cy="0.875" r="0.375" fill="none"/>
    </g>
    <g id="Ellipse_7-11" data-name="Ellipse 7" transform="translate(340.424 557.114) rotate(-90)" fill="#949494" stroke="#949494" stroke-width="1">
      <circle cx="0.875" cy="0.875" r="0.875" stroke="none"/>
      <circle cx="0.875" cy="0.875" r="0.375" fill="none"/>
    </g>
    <g id="Ellipse_7-12" data-name="Ellipse 7" transform="translate(399.95 557.114) rotate(-90)" fill="#949494" stroke="#949494" stroke-width="1">
      <circle cx="0.875" cy="0.875" r="0.875" stroke="none"/>
      <circle cx="0.875" cy="0.875" r="0.375" fill="none"/>
    </g>
    <g id="Ellipse_7-13" data-name="Ellipse 7" transform="translate(459.476 557.114) rotate(-90)" fill="#949494" stroke="#949494" stroke-width="1">
      <circle cx="0.875" cy="0.875" r="0.875" stroke="none"/>
      <circle cx="0.875" cy="0.875" r="0.375" fill="none"/>
    </g>
    <g id="Ellipse_7-14" data-name="Ellipse 7" transform="translate(519.003 557.114) rotate(-90)" fill="#949494" stroke="#949494" stroke-width="1">
      <circle cx="0.875" cy="0.875" r="0.875" stroke="none"/>
      <circle cx="0.875" cy="0.875" r="0.375" fill="none"/>
    </g>
    <g id="Ellipse_7-15" data-name="Ellipse 7" transform="translate(161.846 497.588) rotate(-90)" fill="#949494" stroke="#949494" stroke-width="1">
      <circle cx="0.875" cy="0.875" r="0.875" stroke="none"/>
      <circle cx="0.875" cy="0.875" r="0.375" fill="none"/>
    </g>
    <g id="Ellipse_7-16" data-name="Ellipse 7" transform="translate(221.372 497.588) rotate(-90)" fill="#949494" stroke="#949494" stroke-width="1">
      <circle cx="0.875" cy="0.875" r="0.875" stroke="none"/>
      <circle cx="0.875" cy="0.875" r="0.375" fill="none"/>
    </g>
    <g id="Ellipse_7-17" data-name="Ellipse 7" transform="translate(280.898 497.588) rotate(-90)" fill="#949494" stroke="#949494" stroke-width="1">
      <circle cx="0.875" cy="0.875" r="0.875" stroke="none"/>
      <circle cx="0.875" cy="0.875" r="0.375" fill="none"/>
    </g>
    <g id="Ellipse_7-18" data-name="Ellipse 7" transform="translate(340.424 497.588) rotate(-90)" fill="#949494" stroke="#949494" stroke-width="1">
      <circle cx="0.875" cy="0.875" r="0.875" stroke="none"/>
      <circle cx="0.875" cy="0.875" r="0.375" fill="none"/>
    </g>
    <g id="Ellipse_7-19" data-name="Ellipse 7" transform="translate(399.95 497.588) rotate(-90)" fill="#949494" stroke="#949494" stroke-width="1">
      <circle cx="0.875" cy="0.875" r="0.875" stroke="none"/>
      <circle cx="0.875" cy="0.875" r="0.375" fill="none"/>
    </g>
    <g id="Ellipse_7-20" data-name="Ellipse 7" transform="translate(459.476 497.588) rotate(-90)" fill="#949494" stroke="#949494" stroke-width="1">
      <circle cx="0.875" cy="0.875" r="0.875" stroke="none"/>
      <circle cx="0.875" cy="0.875" r="0.375" fill="none"/>
    </g>
    <g id="Ellipse_7-21" data-name="Ellipse 7" transform="translate(519.003 497.588) rotate(-90)" fill="#949494" stroke="#949494" stroke-width="1">
      <circle cx="0.875" cy="0.875" r="0.875" stroke="none"/>
      <circle cx="0.875" cy="0.875" r="0.375" fill="none"/>
    </g>
    <g id="Ellipse_7-22" data-name="Ellipse 7" transform="translate(161.846 438.062) rotate(-90)" fill="#949494" stroke="#949494" stroke-width="1">
      <circle cx="0.875" cy="0.875" r="0.875" stroke="none"/>
      <circle cx="0.875" cy="0.875" r="0.375" fill="none"/>
    </g>
    <g id="Ellipse_7-23" data-name="Ellipse 7" transform="translate(221.372 438.062) rotate(-90)" fill="#949494" stroke="#949494" stroke-width="1">
      <circle cx="0.875" cy="0.875" r="0.875" stroke="none"/>
      <circle cx="0.875" cy="0.875" r="0.375" fill="none"/>
    </g>
    <g id="Ellipse_7-24" data-name="Ellipse 7" transform="translate(280.898 438.062) rotate(-90)" fill="#949494" stroke="#949494" stroke-width="1">
      <circle cx="0.875" cy="0.875" r="0.875" stroke="none"/>
      <circle cx="0.875" cy="0.875" r="0.375" fill="none"/>
    </g>
    <g id="Ellipse_7-25" data-name="Ellipse 7" transform="translate(340.424 438.062) rotate(-90)" fill="#949494" stroke="#949494" stroke-width="1">
      <circle cx="0.875" cy="0.875" r="0.875" stroke="none"/>
      <circle cx="0.875" cy="0.875" r="0.375" fill="none"/>
    </g>
    <g id="Ellipse_7-26" data-name="Ellipse 7" transform="translate(399.95 438.062) rotate(-90)" fill="#949494" stroke="#949494" stroke-width="1">
      <circle cx="0.875" cy="0.875" r="0.875" stroke="none"/>
      <circle cx="0.875" cy="0.875" r="0.375" fill="none"/>
    </g>
    <g id="Ellipse_7-27" data-name="Ellipse 7" transform="translate(459.476 438.062) rotate(-90)" fill="#949494" stroke="#949494" stroke-width="1">
      <circle cx="0.875" cy="0.875" r="0.875" stroke="none"/>
      <circle cx="0.875" cy="0.875" r="0.375" fill="none"/>
    </g>
    <g id="Ellipse_7-28" data-name="Ellipse 7" transform="translate(519.003 438.062) rotate(-90)" fill="#949494" stroke="#949494" stroke-width="1">
      <circle cx="0.875" cy="0.875" r="0.875" stroke="none"/>
      <circle cx="0.875" cy="0.875" r="0.375" fill="none"/>
    </g>
    <g id="Ellipse_7-29" data-name="Ellipse 7" transform="translate(161.846 378.536) rotate(-90)" fill="#949494" stroke="#949494" stroke-width="1">
      <circle cx="0.875" cy="0.875" r="0.875" stroke="none"/>
      <circle cx="0.875" cy="0.875" r="0.375" fill="none"/>
    </g>
    <g id="Ellipse_7-30" data-name="Ellipse 7" transform="translate(221.372 378.536) rotate(-90)" fill="#949494" stroke="#949494" stroke-width="1">
      <circle cx="0.875" cy="0.875" r="0.875" stroke="none"/>
      <circle cx="0.875" cy="0.875" r="0.375" fill="none"/>
    </g>
    <g id="Ellipse_7-31" data-name="Ellipse 7" transform="translate(280.898 378.536) rotate(-90)" fill="#949494" stroke="#949494" stroke-width="1">
      <circle cx="0.875" cy="0.875" r="0.875" stroke="none"/>
      <circle cx="0.875" cy="0.875" r="0.375" fill="none"/>
    </g>
    <g id="Ellipse_7-32" data-name="Ellipse 7" transform="translate(340.424 378.536) rotate(-90)" fill="#949494" stroke="#949494" stroke-width="1">
      <circle cx="0.875" cy="0.875" r="0.875" stroke="none"/>
      <circle cx="0.875" cy="0.875" r="0.375" fill="none"/>
    </g>
    <g id="Ellipse_7-33" data-name="Ellipse 7" transform="translate(399.95 378.536) rotate(-90)" fill="#949494" stroke="#949494" stroke-width="1">
      <circle cx="0.875" cy="0.875" r="0.875" stroke="none"/>
      <circle cx="0.875" cy="0.875" r="0.375" fill="none"/>
    </g>
    <g id="Ellipse_7-34" data-name="Ellipse 7" transform="translate(459.476 378.536) rotate(-90)" fill="#949494" stroke="#949494" stroke-width="1">
      <circle cx="0.875" cy="0.875" r="0.875" stroke="none"/>
      <circle cx="0.875" cy="0.875" r="0.375" fill="none"/>
    </g>
    <g id="Ellipse_7-35" data-name="Ellipse 7" transform="translate(519.003 378.536) rotate(-90)" fill="#949494" stroke="#949494" stroke-width="1">
      <circle cx="0.875" cy="0.875" r="0.875" stroke="none"/>
      <circle cx="0.875" cy="0.875" r="0.375" fill="none"/>
    </g>
    <g id="Ellipse_7-36" data-name="Ellipse 7" transform="translate(161.846 319.01) rotate(-90)" fill="#949494" stroke="#949494" stroke-width="1">
      <circle cx="0.875" cy="0.875" r="0.875" stroke="none"/>
      <circle cx="0.875" cy="0.875" r="0.375" fill="none"/>
    </g>
    <g id="Ellipse_7-37" data-name="Ellipse 7" transform="translate(221.372 319.01) rotate(-90)" fill="#949494" stroke="#949494" stroke-width="1">
      <circle cx="0.875" cy="0.875" r="0.875" stroke="none"/>
      <circle cx="0.875" cy="0.875" r="0.375" fill="none"/>
    </g>
    <g id="Ellipse_7-38" data-name="Ellipse 7" transform="translate(280.898 319.01) rotate(-90)" fill="#949494" stroke="#949494" stroke-width="1">
      <circle cx="0.875" cy="0.875" r="0.875" stroke="none"/>
      <circle cx="0.875" cy="0.875" r="0.375" fill="none"/>
    </g>
    <g id="Ellipse_7-39" data-name="Ellipse 7" transform="translate(340.424 319.01) rotate(-90)" fill="#949494" stroke="#949494" stroke-width="1">
      <circle cx="0.875" cy="0.875" r="0.875" stroke="none"/>
      <circle cx="0.875" cy="0.875" r="0.375" fill="none"/>
    </g>
    <g id="Ellipse_7-40" data-name="Ellipse 7" transform="translate(399.95 319.01) rotate(-90)" fill="#949494" stroke="#949494" stroke-width="1">
      <circle cx="0.875" cy="0.875" r="0.875" stroke="none"/>
      <circle cx="0.875" cy="0.875" r="0.375" fill="none"/>
    </g>
    <g id="Ellipse_7-41" data-name="Ellipse 7" transform="translate(459.476 319.01) rotate(-90)" fill="#949494" stroke="#949494" stroke-width="1">
      <circle cx="0.875" cy="0.875" r="0.875" stroke="none"/>
      <circle cx="0.875" cy="0.875" r="0.375" fill="none"/>
    </g>
    <g id="Ellipse_7-42" data-name="Ellipse 7" transform="translate(519.003 319.01) rotate(-90)" fill="#949494" stroke="#949494" stroke-width="1">
      <circle cx="0.875" cy="0.875" r="0.875" stroke="none"/>
      <circle cx="0.875" cy="0.875" r="0.375" fill="none"/>
    </g>
    <g id="Ellipse_7-43" data-name="Ellipse 7" transform="translate(161.846 259.484) rotate(-90)" fill="#949494" stroke="#949494" stroke-width="1">
      <circle cx="0.875" cy="0.875" r="0.875" stroke="none"/>
      <circle cx="0.875" cy="0.875" r="0.375" fill="none"/>
    </g>
    <g id="Ellipse_7-44" data-name="Ellipse 7" transform="translate(221.372 259.484) rotate(-90)" fill="#949494" stroke="#949494" stroke-width="1">
      <circle cx="0.875" cy="0.875" r="0.875" stroke="none"/>
      <circle cx="0.875" cy="0.875" r="0.375" fill="none"/>
    </g>
    <g id="Ellipse_7-45" data-name="Ellipse 7" transform="translate(280.898 259.484) rotate(-90)" fill="#949494" stroke="#949494" stroke-width="1">
      <circle cx="0.875" cy="0.875" r="0.875" stroke="none"/>
      <circle cx="0.875" cy="0.875" r="0.375" fill="none"/>
    </g>
    <g id="Ellipse_7-46" data-name="Ellipse 7" transform="translate(340.424 259.484) rotate(-90)" fill="#949494" stroke="#949494" stroke-width="1">
      <circle cx="0.875" cy="0.875" r="0.875" stroke="none"/>
      <circle cx="0.875" cy="0.875" r="0.375" fill="none"/>
    </g>
    <g id="Ellipse_7-47" data-name="Ellipse 7" transform="translate(399.95 259.484) rotate(-90)" fill="#949494" stroke="#949494" stroke-width="1">
      <circle cx="0.875" cy="0.875" r="0.875" stroke="none"/>
      <circle cx="0.875" cy="0.875" r="0.375" fill="none"/>
    </g>
    <g id="Ellipse_7-48" data-name="Ellipse 7" transform="translate(459.476 259.484) rotate(-90)" fill="#949494" stroke="#949494" stroke-width="1">
      <circle cx="0.875" cy="0.875" r="0.875" stroke="none"/>
      <circle cx="0.875" cy="0.875" r="0.375" fill="none"/>
    </g>
    <g id="Ellipse_7-49" data-name="Ellipse 7" transform="translate(519.003 259.484) rotate(-90)" fill="#949494" stroke="#949494" stroke-width="1">
      <circle cx="0.875" cy="0.875" r="0.875" stroke="none"/>
      <circle cx="0.875" cy="0.875" r="0.375" fill="none"/>
    </g>
    <g id="Ellipse_7-50" data-name="Ellipse 7" transform="translate(161.846 199.957) rotate(-90)" fill="#949494" stroke="#949494" stroke-width="1">
      <circle cx="0.875" cy="0.875" r="0.875" stroke="none"/>
      <circle cx="0.875" cy="0.875" r="0.375" fill="none"/>
    </g>
    <g id="Ellipse_7-51" data-name="Ellipse 7" transform="translate(221.372 199.957) rotate(-90)" fill="#949494" stroke="#949494" stroke-width="1">
      <circle cx="0.875" cy="0.875" r="0.875" stroke="none"/>
      <circle cx="0.875" cy="0.875" r="0.375" fill="none"/>
    </g>
    <g id="Ellipse_7-52" data-name="Ellipse 7" transform="translate(280.898 199.957) rotate(-90)" fill="#949494" stroke="#949494" stroke-width="1">
      <circle cx="0.875" cy="0.875" r="0.875" stroke="none"/>
      <circle cx="0.875" cy="0.875" r="0.375" fill="none"/>
    </g>
    <g id="Ellipse_7-53" data-name="Ellipse 7" transform="translate(340.424 199.957) rotate(-90)" fill="#949494" stroke="#949494" stroke-width="1">
      <circle cx="0.875" cy="0.875" r="0.875" stroke="none"/>
      <circle cx="0.875" cy="0.875" r="0.375" fill="none"/>
    </g>
    <g id="Ellipse_7-54" data-name="Ellipse 7" transform="translate(399.95 199.957) rotate(-90)" fill="#949494" stroke="#949494" stroke-width="1">
      <circle cx="0.875" cy="0.875" r="0.875" stroke="none"/>
      <circle cx="0.875" cy="0.875" r="0.375" fill="none"/>
    </g>
    <g id="Ellipse_7-55" data-name="Ellipse 7" transform="translate(459.476 199.957) rotate(-90)" fill="#949494" stroke="#949494" stroke-width="1">
      <circle cx="0.875" cy="0.875" r="0.875" stroke="none"/>
      <circle cx="0.875" cy="0.875" r="0.375" fill="none"/>
    </g>
    <g id="Ellipse_7-56" data-name="Ellipse 7" transform="translate(519.003 199.957) rotate(-90)" fill="#949494" stroke="#949494" stroke-width="1">
      <circle cx="0.875" cy="0.875" r="0.875" stroke="none"/>
      <circle cx="0.875" cy="0.875" r="0.375" fill="none"/>
    </g>
    <g id="Ellipse_7-57" data-name="Ellipse 7" transform="translate(161.846 140.431) rotate(-90)" fill="#949494" stroke="#949494" stroke-width="1">
      <circle cx="0.875" cy="0.875" r="0.875" stroke="none"/>
      <circle cx="0.875" cy="0.875" r="0.375" fill="none"/>
    </g>
    <g id="Ellipse_7-58" data-name="Ellipse 7" transform="translate(221.372 140.431) rotate(-90)" fill="#949494" stroke="#949494" stroke-width="1">
      <circle cx="0.875" cy="0.875" r="0.875" stroke="none"/>
      <circle cx="0.875" cy="0.875" r="0.375" fill="none"/>
    </g>
    <g id="Ellipse_7-59" data-name="Ellipse 7" transform="translate(280.898 140.431) rotate(-90)" fill="#949494" stroke="#949494" stroke-width="1">
      <circle cx="0.875" cy="0.875" r="0.875" stroke="none"/>
      <circle cx="0.875" cy="0.875" r="0.375" fill="none"/>
    </g>
    <g id="Ellipse_7-60" data-name="Ellipse 7" transform="translate(340.424 140.431) rotate(-90)" fill="#949494" stroke="#949494" stroke-width="1">
      <circle cx="0.875" cy="0.875" r="0.875" stroke="none"/>
      <circle cx="0.875" cy="0.875" r="0.375" fill="none"/>
    </g>
    <g id="Ellipse_7-61" data-name="Ellipse 7" transform="translate(399.95 140.431) rotate(-90)" fill="#949494" stroke="#949494" stroke-width="1">
      <circle cx="0.875" cy="0.875" r="0.875" stroke="none"/>
      <circle cx="0.875" cy="0.875" r="0.375" fill="none"/>
    </g>
    <g id="Ellipse_7-62" data-name="Ellipse 7" transform="translate(459.476 140.431) rotate(-90)" fill="#949494" stroke="#949494" stroke-width="1">
      <circle cx="0.875" cy="0.875" r="0.875" stroke="none"/>
      <circle cx="0.875" cy="0.875" r="0.375" fill="none"/>
    </g>
    <g id="Ellipse_7-63" data-name="Ellipse 7" transform="translate(519.003 140.431) rotate(-90)" fill="#949494" stroke="#949494" stroke-width="1">
      <circle cx="0.875" cy="0.875" r="0.875" stroke="none"/>
      <circle cx="0.875" cy="0.875" r="0.375" fill="none"/>
    </g>
    <g id="Ellipse_7-64" data-name="Ellipse 7" transform="translate(161.846 80.905) rotate(-90)" fill="#949494" stroke="#949494" stroke-width="1">
      <circle cx="0.875" cy="0.875" r="0.875" stroke="none"/>
      <circle cx="0.875" cy="0.875" r="0.375" fill="none"/>
    </g>
    <g id="Ellipse_7-65" data-name="Ellipse 7" transform="translate(221.372 80.905) rotate(-90)" fill="#949494" stroke="#949494" stroke-width="1">
      <circle cx="0.875" cy="0.875" r="0.875" stroke="none"/>
      <circle cx="0.875" cy="0.875" r="0.375" fill="none"/>
    </g>
    <g id="Ellipse_7-66" data-name="Ellipse 7" transform="translate(280.898 80.905) rotate(-90)" fill="#949494" stroke="#949494" stroke-width="1">
      <circle cx="0.875" cy="0.875" r="0.875" stroke="none"/>
      <circle cx="0.875" cy="0.875" r="0.375" fill="none"/>
    </g>
    <g id="Ellipse_7-67" data-name="Ellipse 7" transform="translate(340.424 80.905) rotate(-90)" fill="#949494" stroke="#949494" stroke-width="1">
      <circle cx="0.875" cy="0.875" r="0.875" stroke="none"/>
      <circle cx="0.875" cy="0.875" r="0.375" fill="none"/>
    </g>
    <g id="Ellipse_7-68" data-name="Ellipse 7" transform="translate(399.95 80.905) rotate(-90)" fill="#949494" stroke="#949494" stroke-width="1">
      <circle cx="0.875" cy="0.875" r="0.875" stroke="none"/>
      <circle cx="0.875" cy="0.875" r="0.375" fill="none"/>
    </g>
    <g id="Ellipse_7-69" data-name="Ellipse 7" transform="translate(459.476 80.905) rotate(-90)" fill="#949494" stroke="#949494" stroke-width="1">
      <circle cx="0.875" cy="0.875" r="0.875" stroke="none"/>
      <circle cx="0.875" cy="0.875" r="0.375" fill="none"/>
    </g>
    <g id="Ellipse_7-70" data-name="Ellipse 7" transform="translate(519.003 80.905) rotate(-90)" fill="#949494" stroke="#949494" stroke-width="1">
      <circle cx="0.875" cy="0.875" r="0.875" stroke="none"/>
      <circle cx="0.875" cy="0.875" r="0.375" fill="none"/>
    </g>
  </g>
</svg>
