<svg xmlns="http://www.w3.org/2000/svg" xmlns:xlink="http://www.w3.org/1999/xlink" width="978.809" height="1040.544" viewBox="0 0 978.809 1040.544">
  <defs>
    <linearGradient id="linear-gradient" x1="0.915" y1="0.829" x2="0.146" y2="0.099" gradientUnits="objectBoundingBox">
      <stop offset="0" stop-color="#fe9484"/>
      <stop offset="1" stop-color="#ff543a"/>
    </linearGradient>
    <filter id="Path_19" x="0" y="0" width="872.65" height="944" filterUnits="userSpaceOnUse">
      <feOffset dy="40" input="SourceAlpha"/>
      <feGaussianBlur stdDeviation="49.5" result="blur"/>
      <feFlood flood-color="#ff9484" flood-opacity="0.8"/>
      <feComposite operator="in" in2="blur"/>
      <feComposite in="SourceGraphic"/>
    </filter>
    <linearGradient id="linear-gradient-2" x1="0.544" y1="0.088" x2="0.51" y2="0.902" gradientUnits="objectBoundingBox">
      <stop offset="0" stop-color="#374254"/>
      <stop offset="1" stop-color="#273246"/>
    </linearGradient>
    <filter id="Path_21" x="333.975" y="320.942" width="644.834" height="719.602" filterUnits="userSpaceOnUse">
      <feOffset dy="16" input="SourceAlpha"/>
      <feGaussianBlur stdDeviation="30" result="blur-2"/>
      <feFlood flood-color="#838c97"/>
      <feComposite operator="in" in2="blur-2"/>
      <feComposite in="SourceGraphic"/>
    </filter>
    <linearGradient id="linear-gradient-3" x1="0" y1="1" x2="0.826" y2="-0.173" xlink:href="#linear-gradient"/>
    <filter id="Ellipse_2" x="67.718" y="711.949" width="292" height="292" filterUnits="userSpaceOnUse">
      <feOffset dy="25" input="SourceAlpha"/>
      <feGaussianBlur stdDeviation="33" result="blur-3"/>
      <feFlood flood-color="#ff9484"/>
      <feComposite operator="in" in2="blur-3"/>
      <feComposite in="SourceGraphic"/>
    </filter>
  </defs>
  <g id="Group_13" data-name="Group 13" transform="translate(36.654 -55.61)">
    <g id="Ellipse_7" data-name="Ellipse 7" transform="translate(161.846 1000.154) rotate(-90)" fill="#b1b1b1" stroke="#b1b1b1" stroke-width="1">
      <circle cx="1.5" cy="1.5" r="1.5" stroke="none"/>
      <circle cx="1.5" cy="1.5" r="1" fill="none"/>
    </g>
    <g id="Ellipse_7-2" data-name="Ellipse 7" transform="translate(263.846 1000.154) rotate(-90)" fill="#b1b1b1" stroke="#b1b1b1" stroke-width="1">
      <circle cx="1.5" cy="1.5" r="1.5" stroke="none"/>
      <circle cx="1.5" cy="1.5" r="1" fill="none"/>
    </g>
    <g id="Ellipse_7-3" data-name="Ellipse 7" transform="translate(365.846 1000.154) rotate(-90)" fill="#b1b1b1" stroke="#b1b1b1" stroke-width="1">
      <circle cx="1.5" cy="1.5" r="1.5" stroke="none"/>
      <circle cx="1.5" cy="1.5" r="1" fill="none"/>
    </g>
    <g id="Ellipse_7-4" data-name="Ellipse 7" transform="translate(467.846 1000.154) rotate(-90)" fill="#b1b1b1" stroke="#b1b1b1" stroke-width="1">
      <circle cx="1.5" cy="1.5" r="1.5" stroke="none"/>
      <circle cx="1.5" cy="1.5" r="1" fill="none"/>
    </g>
    <g id="Ellipse_7-5" data-name="Ellipse 7" transform="translate(569.846 1000.154) rotate(-90)" fill="#b1b1b1" stroke="#b1b1b1" stroke-width="1">
      <circle cx="1.5" cy="1.5" r="1.5" stroke="none"/>
      <circle cx="1.5" cy="1.5" r="1" fill="none"/>
    </g>
    <g id="Ellipse_7-6" data-name="Ellipse 7" transform="translate(671.846 1000.154) rotate(-90)" fill="#b1b1b1" stroke="#b1b1b1" stroke-width="1">
      <circle cx="1.5" cy="1.5" r="1.5" stroke="none"/>
      <circle cx="1.5" cy="1.5" r="1" fill="none"/>
    </g>
    <g id="Ellipse_7-7" data-name="Ellipse 7" transform="translate(773.846 1000.154) rotate(-90)" fill="#b1b1b1" stroke="#b1b1b1" stroke-width="1">
      <circle cx="1.5" cy="1.5" r="1.5" stroke="none"/>
      <circle cx="1.5" cy="1.5" r="1" fill="none"/>
    </g>
    <g id="Ellipse_7-8" data-name="Ellipse 7" transform="translate(161.846 898.154) rotate(-90)" fill="#b1b1b1" stroke="#b1b1b1" stroke-width="1">
      <circle cx="1.5" cy="1.5" r="1.5" stroke="none"/>
      <circle cx="1.5" cy="1.5" r="1" fill="none"/>
    </g>
    <g id="Ellipse_7-9" data-name="Ellipse 7" transform="translate(263.846 898.154) rotate(-90)" fill="#b1b1b1" stroke="#b1b1b1" stroke-width="1">
      <circle cx="1.5" cy="1.5" r="1.5" stroke="none"/>
      <circle cx="1.5" cy="1.5" r="1" fill="none"/>
    </g>
    <g id="Ellipse_7-10" data-name="Ellipse 7" transform="translate(365.846 898.154) rotate(-90)" fill="#b1b1b1" stroke="#b1b1b1" stroke-width="1">
      <circle cx="1.5" cy="1.5" r="1.5" stroke="none"/>
      <circle cx="1.5" cy="1.5" r="1" fill="none"/>
    </g>
    <g id="Ellipse_7-11" data-name="Ellipse 7" transform="translate(467.846 898.154) rotate(-90)" fill="#b1b1b1" stroke="#b1b1b1" stroke-width="1">
      <circle cx="1.5" cy="1.5" r="1.5" stroke="none"/>
      <circle cx="1.5" cy="1.5" r="1" fill="none"/>
    </g>
    <g id="Ellipse_7-12" data-name="Ellipse 7" transform="translate(569.846 898.154) rotate(-90)" fill="#b1b1b1" stroke="#b1b1b1" stroke-width="1">
      <circle cx="1.5" cy="1.5" r="1.5" stroke="none"/>
      <circle cx="1.5" cy="1.5" r="1" fill="none"/>
    </g>
    <g id="Ellipse_7-13" data-name="Ellipse 7" transform="translate(671.846 898.154) rotate(-90)" fill="#b1b1b1" stroke="#b1b1b1" stroke-width="1">
      <circle cx="1.5" cy="1.5" r="1.5" stroke="none"/>
      <circle cx="1.5" cy="1.5" r="1" fill="none"/>
    </g>
    <g id="Ellipse_7-14" data-name="Ellipse 7" transform="translate(773.846 898.154) rotate(-90)" fill="#b1b1b1" stroke="#b1b1b1" stroke-width="1">
      <circle cx="1.5" cy="1.5" r="1.5" stroke="none"/>
      <circle cx="1.5" cy="1.5" r="1" fill="none"/>
    </g>
    <g id="Ellipse_7-15" data-name="Ellipse 7" transform="translate(161.846 796.154) rotate(-90)" fill="#b1b1b1" stroke="#b1b1b1" stroke-width="1">
      <circle cx="1.5" cy="1.5" r="1.5" stroke="none"/>
      <circle cx="1.5" cy="1.5" r="1" fill="none"/>
    </g>
    <g id="Ellipse_7-16" data-name="Ellipse 7" transform="translate(263.846 796.154) rotate(-90)" fill="#b1b1b1" stroke="#b1b1b1" stroke-width="1">
      <circle cx="1.5" cy="1.5" r="1.5" stroke="none"/>
      <circle cx="1.5" cy="1.5" r="1" fill="none"/>
    </g>
    <g id="Ellipse_7-17" data-name="Ellipse 7" transform="translate(365.846 796.154) rotate(-90)" fill="#b1b1b1" stroke="#b1b1b1" stroke-width="1">
      <circle cx="1.5" cy="1.5" r="1.5" stroke="none"/>
      <circle cx="1.5" cy="1.5" r="1" fill="none"/>
    </g>
    <g id="Ellipse_7-18" data-name="Ellipse 7" transform="translate(467.846 796.154) rotate(-90)" fill="#b1b1b1" stroke="#b1b1b1" stroke-width="1">
      <circle cx="1.5" cy="1.5" r="1.5" stroke="none"/>
      <circle cx="1.5" cy="1.5" r="1" fill="none"/>
    </g>
    <g id="Ellipse_7-19" data-name="Ellipse 7" transform="translate(569.846 796.154) rotate(-90)" fill="#b1b1b1" stroke="#b1b1b1" stroke-width="1">
      <circle cx="1.5" cy="1.5" r="1.5" stroke="none"/>
      <circle cx="1.5" cy="1.5" r="1" fill="none"/>
    </g>
    <g id="Ellipse_7-20" data-name="Ellipse 7" transform="translate(671.846 796.154) rotate(-90)" fill="#b1b1b1" stroke="#b1b1b1" stroke-width="1">
      <circle cx="1.5" cy="1.5" r="1.5" stroke="none"/>
      <circle cx="1.5" cy="1.5" r="1" fill="none"/>
    </g>
    <g id="Ellipse_7-21" data-name="Ellipse 7" transform="translate(773.846 796.154) rotate(-90)" fill="#b1b1b1" stroke="#b1b1b1" stroke-width="1">
      <circle cx="1.5" cy="1.5" r="1.5" stroke="none"/>
      <circle cx="1.5" cy="1.5" r="1" fill="none"/>
    </g>
    <g id="Ellipse_7-22" data-name="Ellipse 7" transform="translate(161.846 694.154) rotate(-90)" fill="#b1b1b1" stroke="#b1b1b1" stroke-width="1">
      <circle cx="1.5" cy="1.5" r="1.5" stroke="none"/>
      <circle cx="1.5" cy="1.5" r="1" fill="none"/>
    </g>
    <g id="Ellipse_7-23" data-name="Ellipse 7" transform="translate(263.846 694.154) rotate(-90)" fill="#b1b1b1" stroke="#b1b1b1" stroke-width="1">
      <circle cx="1.5" cy="1.5" r="1.5" stroke="none"/>
      <circle cx="1.5" cy="1.5" r="1" fill="none"/>
    </g>
    <g id="Ellipse_7-24" data-name="Ellipse 7" transform="translate(365.846 694.154) rotate(-90)" fill="#b1b1b1" stroke="#b1b1b1" stroke-width="1">
      <circle cx="1.5" cy="1.5" r="1.5" stroke="none"/>
      <circle cx="1.5" cy="1.5" r="1" fill="none"/>
    </g>
    <g id="Ellipse_7-25" data-name="Ellipse 7" transform="translate(467.846 694.154) rotate(-90)" fill="#b1b1b1" stroke="#b1b1b1" stroke-width="1">
      <circle cx="1.5" cy="1.5" r="1.5" stroke="none"/>
      <circle cx="1.5" cy="1.5" r="1" fill="none"/>
    </g>
    <g id="Ellipse_7-26" data-name="Ellipse 7" transform="translate(569.846 694.154) rotate(-90)" fill="#b1b1b1" stroke="#b1b1b1" stroke-width="1">
      <circle cx="1.5" cy="1.5" r="1.5" stroke="none"/>
      <circle cx="1.5" cy="1.5" r="1" fill="none"/>
    </g>
    <g id="Ellipse_7-27" data-name="Ellipse 7" transform="translate(671.846 694.154) rotate(-90)" fill="#b1b1b1" stroke="#b1b1b1" stroke-width="1">
      <circle cx="1.5" cy="1.5" r="1.5" stroke="none"/>
      <circle cx="1.5" cy="1.5" r="1" fill="none"/>
    </g>
    <g id="Ellipse_7-28" data-name="Ellipse 7" transform="translate(773.846 694.154) rotate(-90)" fill="#b1b1b1" stroke="#b1b1b1" stroke-width="1">
      <circle cx="1.5" cy="1.5" r="1.5" stroke="none"/>
      <circle cx="1.5" cy="1.5" r="1" fill="none"/>
    </g>
    <g id="Ellipse_7-29" data-name="Ellipse 7" transform="translate(161.846 592.154) rotate(-90)" fill="#b1b1b1" stroke="#b1b1b1" stroke-width="1">
      <circle cx="1.5" cy="1.5" r="1.5" stroke="none"/>
      <circle cx="1.5" cy="1.5" r="1" fill="none"/>
    </g>
    <g id="Ellipse_7-30" data-name="Ellipse 7" transform="translate(263.846 592.154) rotate(-90)" fill="#b1b1b1" stroke="#b1b1b1" stroke-width="1">
      <circle cx="1.5" cy="1.5" r="1.5" stroke="none"/>
      <circle cx="1.5" cy="1.5" r="1" fill="none"/>
    </g>
    <g id="Ellipse_7-31" data-name="Ellipse 7" transform="translate(365.846 592.154) rotate(-90)" fill="#b1b1b1" stroke="#b1b1b1" stroke-width="1">
      <circle cx="1.5" cy="1.5" r="1.5" stroke="none"/>
      <circle cx="1.5" cy="1.5" r="1" fill="none"/>
    </g>
    <g id="Ellipse_7-32" data-name="Ellipse 7" transform="translate(467.846 592.154) rotate(-90)" fill="#b1b1b1" stroke="#b1b1b1" stroke-width="1">
      <circle cx="1.5" cy="1.5" r="1.5" stroke="none"/>
      <circle cx="1.5" cy="1.5" r="1" fill="none"/>
    </g>
    <g id="Ellipse_7-33" data-name="Ellipse 7" transform="translate(569.846 592.154) rotate(-90)" fill="#b1b1b1" stroke="#b1b1b1" stroke-width="1">
      <circle cx="1.5" cy="1.5" r="1.5" stroke="none"/>
      <circle cx="1.5" cy="1.5" r="1" fill="none"/>
    </g>
    <g id="Ellipse_7-34" data-name="Ellipse 7" transform="translate(671.846 592.154) rotate(-90)" fill="#b1b1b1" stroke="#b1b1b1" stroke-width="1">
      <circle cx="1.5" cy="1.5" r="1.5" stroke="none"/>
      <circle cx="1.5" cy="1.5" r="1" fill="none"/>
    </g>
    <g id="Ellipse_7-35" data-name="Ellipse 7" transform="translate(773.846 592.154) rotate(-90)" fill="#b1b1b1" stroke="#b1b1b1" stroke-width="1">
      <circle cx="1.5" cy="1.5" r="1.5" stroke="none"/>
      <circle cx="1.5" cy="1.5" r="1" fill="none"/>
    </g>
    <g id="Ellipse_7-36" data-name="Ellipse 7" transform="translate(161.846 490.154) rotate(-90)" fill="#b1b1b1" stroke="#b1b1b1" stroke-width="1">
      <circle cx="1.5" cy="1.5" r="1.5" stroke="none"/>
      <circle cx="1.5" cy="1.5" r="1" fill="none"/>
    </g>
    <g id="Ellipse_7-37" data-name="Ellipse 7" transform="translate(263.846 490.154) rotate(-90)" fill="#b1b1b1" stroke="#b1b1b1" stroke-width="1">
      <circle cx="1.5" cy="1.5" r="1.5" stroke="none"/>
      <circle cx="1.5" cy="1.5" r="1" fill="none"/>
    </g>
    <g id="Ellipse_7-38" data-name="Ellipse 7" transform="translate(365.846 490.154) rotate(-90)" fill="#b1b1b1" stroke="#b1b1b1" stroke-width="1">
      <circle cx="1.5" cy="1.5" r="1.5" stroke="none"/>
      <circle cx="1.5" cy="1.5" r="1" fill="none"/>
    </g>
    <g id="Ellipse_7-39" data-name="Ellipse 7" transform="translate(467.846 490.154) rotate(-90)" fill="#b1b1b1" stroke="#b1b1b1" stroke-width="1">
      <circle cx="1.5" cy="1.5" r="1.5" stroke="none"/>
      <circle cx="1.5" cy="1.5" r="1" fill="none"/>
    </g>
    <g id="Ellipse_7-40" data-name="Ellipse 7" transform="translate(569.846 490.154) rotate(-90)" fill="#b1b1b1" stroke="#b1b1b1" stroke-width="1">
      <circle cx="1.5" cy="1.5" r="1.5" stroke="none"/>
      <circle cx="1.5" cy="1.5" r="1" fill="none"/>
    </g>
    <g id="Ellipse_7-41" data-name="Ellipse 7" transform="translate(671.846 490.154) rotate(-90)" fill="#b1b1b1" stroke="#b1b1b1" stroke-width="1">
      <circle cx="1.5" cy="1.5" r="1.5" stroke="none"/>
      <circle cx="1.5" cy="1.5" r="1" fill="none"/>
    </g>
    <g id="Ellipse_7-42" data-name="Ellipse 7" transform="translate(773.846 490.154) rotate(-90)" fill="#b1b1b1" stroke="#b1b1b1" stroke-width="1">
      <circle cx="1.5" cy="1.5" r="1.5" stroke="none"/>
      <circle cx="1.5" cy="1.5" r="1" fill="none"/>
    </g>
    <g id="Ellipse_7-43" data-name="Ellipse 7" transform="translate(161.846 388.154) rotate(-90)" fill="#b1b1b1" stroke="#b1b1b1" stroke-width="1">
      <circle cx="1.5" cy="1.5" r="1.5" stroke="none"/>
      <circle cx="1.5" cy="1.5" r="1" fill="none"/>
    </g>
    <g id="Ellipse_7-44" data-name="Ellipse 7" transform="translate(263.846 388.154) rotate(-90)" fill="#b1b1b1" stroke="#b1b1b1" stroke-width="1">
      <circle cx="1.5" cy="1.5" r="1.5" stroke="none"/>
      <circle cx="1.5" cy="1.5" r="1" fill="none"/>
    </g>
    <g id="Ellipse_7-45" data-name="Ellipse 7" transform="translate(365.846 388.154) rotate(-90)" fill="#b1b1b1" stroke="#b1b1b1" stroke-width="1">
      <circle cx="1.5" cy="1.5" r="1.5" stroke="none"/>
      <circle cx="1.5" cy="1.5" r="1" fill="none"/>
    </g>
    <g id="Ellipse_7-46" data-name="Ellipse 7" transform="translate(467.846 388.154) rotate(-90)" fill="#b1b1b1" stroke="#b1b1b1" stroke-width="1">
      <circle cx="1.5" cy="1.5" r="1.5" stroke="none"/>
      <circle cx="1.5" cy="1.5" r="1" fill="none"/>
    </g>
    <g id="Ellipse_7-47" data-name="Ellipse 7" transform="translate(569.846 388.154) rotate(-90)" fill="#b1b1b1" stroke="#b1b1b1" stroke-width="1">
      <circle cx="1.5" cy="1.5" r="1.5" stroke="none"/>
      <circle cx="1.5" cy="1.5" r="1" fill="none"/>
    </g>
    <g id="Ellipse_7-48" data-name="Ellipse 7" transform="translate(671.846 388.154) rotate(-90)" fill="#b1b1b1" stroke="#b1b1b1" stroke-width="1">
      <circle cx="1.5" cy="1.5" r="1.5" stroke="none"/>
      <circle cx="1.5" cy="1.5" r="1" fill="none"/>
    </g>
    <g id="Ellipse_7-49" data-name="Ellipse 7" transform="translate(773.846 388.154) rotate(-90)" fill="#b1b1b1" stroke="#b1b1b1" stroke-width="1">
      <circle cx="1.5" cy="1.5" r="1.5" stroke="none"/>
      <circle cx="1.5" cy="1.5" r="1" fill="none"/>
    </g>
    <g id="Ellipse_7-50" data-name="Ellipse 7" transform="translate(161.846 286.154) rotate(-90)" fill="#b1b1b1" stroke="#b1b1b1" stroke-width="1">
      <circle cx="1.5" cy="1.5" r="1.5" stroke="none"/>
      <circle cx="1.5" cy="1.5" r="1" fill="none"/>
    </g>
    <g id="Ellipse_7-51" data-name="Ellipse 7" transform="translate(263.846 286.154) rotate(-90)" fill="#b1b1b1" stroke="#b1b1b1" stroke-width="1">
      <circle cx="1.5" cy="1.5" r="1.5" stroke="none"/>
      <circle cx="1.5" cy="1.5" r="1" fill="none"/>
    </g>
    <g id="Ellipse_7-52" data-name="Ellipse 7" transform="translate(365.846 286.154) rotate(-90)" fill="#b1b1b1" stroke="#b1b1b1" stroke-width="1">
      <circle cx="1.5" cy="1.5" r="1.5" stroke="none"/>
      <circle cx="1.5" cy="1.5" r="1" fill="none"/>
    </g>
    <g id="Ellipse_7-53" data-name="Ellipse 7" transform="translate(467.846 286.154) rotate(-90)" fill="#b1b1b1" stroke="#b1b1b1" stroke-width="1">
      <circle cx="1.5" cy="1.5" r="1.5" stroke="none"/>
      <circle cx="1.5" cy="1.5" r="1" fill="none"/>
    </g>
    <g id="Ellipse_7-54" data-name="Ellipse 7" transform="translate(569.846 286.154) rotate(-90)" fill="#b1b1b1" stroke="#b1b1b1" stroke-width="1">
      <circle cx="1.5" cy="1.5" r="1.5" stroke="none"/>
      <circle cx="1.5" cy="1.5" r="1" fill="none"/>
    </g>
    <g id="Ellipse_7-55" data-name="Ellipse 7" transform="translate(671.846 286.154) rotate(-90)" fill="#b1b1b1" stroke="#b1b1b1" stroke-width="1">
      <circle cx="1.5" cy="1.5" r="1.5" stroke="none"/>
      <circle cx="1.5" cy="1.5" r="1" fill="none"/>
    </g>
    <g id="Ellipse_7-56" data-name="Ellipse 7" transform="translate(773.846 286.154) rotate(-90)" fill="#b1b1b1" stroke="#b1b1b1" stroke-width="1">
      <circle cx="1.5" cy="1.5" r="1.5" stroke="none"/>
      <circle cx="1.5" cy="1.5" r="1" fill="none"/>
    </g>
    <g id="Ellipse_7-57" data-name="Ellipse 7" transform="translate(161.846 184.154) rotate(-90)" fill="#b1b1b1" stroke="#b1b1b1" stroke-width="1">
      <circle cx="1.5" cy="1.5" r="1.5" stroke="none"/>
      <circle cx="1.5" cy="1.5" r="1" fill="none"/>
    </g>
    <g id="Ellipse_7-58" data-name="Ellipse 7" transform="translate(263.846 184.154) rotate(-90)" fill="#b1b1b1" stroke="#b1b1b1" stroke-width="1">
      <circle cx="1.5" cy="1.5" r="1.5" stroke="none"/>
      <circle cx="1.5" cy="1.5" r="1" fill="none"/>
    </g>
    <g id="Ellipse_7-59" data-name="Ellipse 7" transform="translate(365.846 184.154) rotate(-90)" fill="#b1b1b1" stroke="#b1b1b1" stroke-width="1">
      <circle cx="1.5" cy="1.5" r="1.5" stroke="none"/>
      <circle cx="1.5" cy="1.5" r="1" fill="none"/>
    </g>
    <g id="Ellipse_7-60" data-name="Ellipse 7" transform="translate(467.846 184.154) rotate(-90)" fill="#b1b1b1" stroke="#b1b1b1" stroke-width="1">
      <circle cx="1.5" cy="1.5" r="1.5" stroke="none"/>
      <circle cx="1.5" cy="1.5" r="1" fill="none"/>
    </g>
    <g id="Ellipse_7-61" data-name="Ellipse 7" transform="translate(569.846 184.154) rotate(-90)" fill="#b1b1b1" stroke="#b1b1b1" stroke-width="1">
      <circle cx="1.5" cy="1.5" r="1.5" stroke="none"/>
      <circle cx="1.5" cy="1.5" r="1" fill="none"/>
    </g>
    <g id="Ellipse_7-62" data-name="Ellipse 7" transform="translate(671.846 184.154) rotate(-90)" fill="#b1b1b1" stroke="#b1b1b1" stroke-width="1">
      <circle cx="1.5" cy="1.5" r="1.5" stroke="none"/>
      <circle cx="1.5" cy="1.5" r="1" fill="none"/>
    </g>
    <g id="Ellipse_7-63" data-name="Ellipse 7" transform="translate(773.846 184.154) rotate(-90)" fill="#b1b1b1" stroke="#b1b1b1" stroke-width="1">
      <circle cx="1.5" cy="1.5" r="1.5" stroke="none"/>
      <circle cx="1.5" cy="1.5" r="1" fill="none"/>
    </g>
    <g id="Ellipse_7-64" data-name="Ellipse 7" transform="translate(161.846 82.154) rotate(-90)" fill="#b1b1b1" stroke="#b1b1b1" stroke-width="1">
      <circle cx="1.5" cy="1.5" r="1.5" stroke="none"/>
      <circle cx="1.5" cy="1.5" r="1" fill="none"/>
    </g>
    <g id="Ellipse_7-65" data-name="Ellipse 7" transform="translate(263.846 82.154) rotate(-90)" fill="#b1b1b1" stroke="#b1b1b1" stroke-width="1">
      <circle cx="1.5" cy="1.5" r="1.5" stroke="none"/>
      <circle cx="1.5" cy="1.5" r="1" fill="none"/>
    </g>
    <g id="Ellipse_7-66" data-name="Ellipse 7" transform="translate(365.846 82.154) rotate(-90)" fill="#b1b1b1" stroke="#b1b1b1" stroke-width="1">
      <circle cx="1.5" cy="1.5" r="1.5" stroke="none"/>
      <circle cx="1.5" cy="1.5" r="1" fill="none"/>
    </g>
    <g id="Ellipse_7-67" data-name="Ellipse 7" transform="translate(467.846 82.154) rotate(-90)" fill="#b1b1b1" stroke="#b1b1b1" stroke-width="1">
      <circle cx="1.5" cy="1.5" r="1.5" stroke="none"/>
      <circle cx="1.5" cy="1.5" r="1" fill="none"/>
    </g>
    <g id="Ellipse_7-68" data-name="Ellipse 7" transform="translate(569.846 82.154) rotate(-90)" fill="#b1b1b1" stroke="#b1b1b1" stroke-width="1">
      <circle cx="1.5" cy="1.5" r="1.5" stroke="none"/>
      <circle cx="1.5" cy="1.5" r="1" fill="none"/>
    </g>
    <g id="Ellipse_7-69" data-name="Ellipse 7" transform="translate(671.846 82.154) rotate(-90)" fill="#b1b1b1" stroke="#b1b1b1" stroke-width="1">
      <circle cx="1.5" cy="1.5" r="1.5" stroke="none"/>
      <circle cx="1.5" cy="1.5" r="1" fill="none"/>
    </g>
    <g id="Ellipse_7-70" data-name="Ellipse 7" transform="translate(773.846 82.154) rotate(-90)" fill="#b1b1b1" stroke="#b1b1b1" stroke-width="1">
      <circle cx="1.5" cy="1.5" r="1.5" stroke="none"/>
      <circle cx="1.5" cy="1.5" r="1" fill="none"/>
    </g>
    <g transform="matrix(1, 0, 0, 1, -36.65, 55.61)" filter="url(#Path_19)">
      <path id="Path_19-2" data-name="Path 19" d="M239.306-179.94c17.237,27.087-14.911,114.913,10.534,175.1,25.308,60.192,108.209,92.888,139.81,142.957s11.765,117.785-28.591,171.685c-40.493,53.9-101.369,94.119-154.585,66.9C153.258,349.615,107.84,255.086,68.168,211.173,28.5,167.4-5.431,174.237-53.995,166.713c-48.564-7.387-111.9-29.139-149.66-74.693S-253.587-22.756-228.826-74.467c24.624-51.711,86.184-86.048,145.282-93.845,59.1-7.934,115.87,10.534,177.43,2.873C155.584-173.1,222.069-206.89,239.306-179.94Z" transform="translate(338.7 513.76) rotate(-90)" fill="url(#linear-gradient)"/>
    </g>
    <g id="blob-shape_8_" data-name="blob-shape (8)" transform="translate(645.705 749.803) rotate(30)">
      <g transform="matrix(0.87, -0.5, 0.5, 0.87, -938.04, -260.01)" filter="url(#Path_21)">
        <path id="Path_21-2" data-name="Path 21" d="M69.3-142.8c8,40.1-6.5,80.5-10.8,105.9S60.3-1,71,18.9c10.7,20,26.2,49.3,24.4,79.4-1.7,30.1-20.7,60.9-51.4,85.4-30.8,24.5-73.3,42.7-113.6,37.9s-78.3-32.6-70.3-72.9c8-40.2,62.1-92.7,60.6-134.4-1.4-41.7-58.4-72.4-80.1-113-21.7-40.5-8.2-90.8,24.2-119.8,32.5-29,83.8-36.8,124.8-20.6C30.6-223,61.3-183,69.3-142.8Z" transform="translate(682.36 694.19) rotate(30)" fill="url(#linear-gradient-2)"/>
      </g>
    </g>
    <g transform="matrix(1, 0, 0, 1, -36.65, 55.61)" filter="url(#Ellipse_2)">
      <circle id="Ellipse_2-2" data-name="Ellipse 2" cx="47" cy="47" r="47" transform="translate(260.72 879.95) rotate(180)" fill="url(#linear-gradient-3)"/>
    </g>
  </g>
</svg>
