<svg id="code-outline" xmlns="http://www.w3.org/2000/svg" width="24" height="24" viewBox="0 0 24 24">
  <g id="code">
    <rect id="Rectangle_9" data-name="Rectangle 9" width="24" height="24" transform="translate(24) rotate(90)" fill="#bf4d00" opacity="0"/>
    <path id="Path_23" data-name="Path 23" d="M8.64,5.23a1,1,0,0,0-1.41.13l-5,6a1,1,0,0,0,0,1.27l4.83,6a1,1,0,1,0,1.56-1.26L4.29,12,8.77,6.64a1,1,0,0,0-.13-1.41Z" fill="#bf4d00"/>
    <path id="Path_24" data-name="Path 24" d="M21.78,11.37,17,5.37a1,1,0,1,0-1.56,1.26L19.71,12l-4.48,5.37a1,1,0,0,0,1.54,1.27l5-6a1,1,0,0,0,.01-1.27Z" fill="#bf4d00"/>
  </g>
</svg>
