<svg xmlns="http://www.w3.org/2000/svg" width="71.23" height="69.487" viewBox="0 0 71.23 69.487">
    <g id="github-logo" transform="translate(0 -5.365)">
        <path id="Path_1" data-name="Path 1" d="M66.452,23.1A35.46,35.46,0,0,0,53.491,10.142,34.835,34.835,0,0,0,35.614,5.365a34.839,34.839,0,0,0-17.877,4.777A35.456,35.456,0,0,0,4.777,23.1,34.837,34.837,0,0,0,0,40.979,34.612,34.612,0,0,0,6.794,61.916,34.881,34.881,0,0,0,24.345,74.784,2.076,2.076,0,0,0,26.2,74.46a1.814,1.814,0,0,0,.6-1.391q0-.139-.023-2.5t-.023-4.127l-1.067.185a13.606,13.606,0,0,1-2.574.162,19.609,19.609,0,0,1-3.223-.325,7.2,7.2,0,0,1-3.107-1.39,5.884,5.884,0,0,1-2.04-2.851l-.464-1.067a11.588,11.588,0,0,0-1.461-2.365A5.6,5.6,0,0,0,10.8,57.025l-.325-.232a3.4,3.4,0,0,1-.6-.557,2.544,2.544,0,0,1-.417-.649q-.139-.325.232-.534a3.008,3.008,0,0,1,1.345-.207l.927.139a6.769,6.769,0,0,1,2.3,1.113,7.485,7.485,0,0,1,2.249,2.411,8.174,8.174,0,0,0,2.574,2.9,5.46,5.46,0,0,0,3.037,1,13.187,13.187,0,0,0,2.643-.231,9.223,9.223,0,0,0,2.087-.7A7.514,7.514,0,0,1,29.121,56.7a31.753,31.753,0,0,1-4.753-.835,18.926,18.926,0,0,1-4.359-1.809,12.484,12.484,0,0,1-3.733-3.106,14.931,14.931,0,0,1-2.434-4.869,23.155,23.155,0,0,1-.95-6.956,13.526,13.526,0,0,1,3.664-9.553q-1.716-4.219.324-9.459a6.5,6.5,0,0,1,3.988.626,27.882,27.882,0,0,1,3.872,1.786q1.229.741,1.971,1.252a33.491,33.491,0,0,1,17.808,0l1.762-1.112a24.957,24.957,0,0,1,4.266-2.041,6.077,6.077,0,0,1,3.757-.51q2.086,5.24.37,9.459a13.528,13.528,0,0,1,3.664,9.553,23.414,23.414,0,0,1-.951,6.979,14.351,14.351,0,0,1-2.457,4.869,12.964,12.964,0,0,1-3.757,3.084,18.961,18.961,0,0,1-4.359,1.809,31.72,31.72,0,0,1-4.753.836q2.411,2.086,2.411,6.584v9.784a1.847,1.847,0,0,0,.58,1.391,2.014,2.014,0,0,0,1.831.324A34.876,34.876,0,0,0,64.436,61.914,34.619,34.619,0,0,0,71.23,40.977,34.866,34.866,0,0,0,66.452,23.1Z"
        fill="#fff" />
    </g>
</svg>