<svg xmlns="http://www.w3.org/2000/svg" xmlns:xlink="http://www.w3.org/1999/xlink" width="170" height="170" viewBox="0 0 170 170">
  <defs>
    <linearGradient id="linear-gradient" x1="0.894" x2="0.139" y2="1.09" gradientUnits="objectBoundingBox">
      <stop offset="0" stop-color="#ffb199"/>
      <stop offset="1" stop-color="#ff0844"/>
    </linearGradient>
  </defs>
  <g id="Group_11" data-name="Group 11" transform="translate(-1184 -191)">
    <circle id="Ellipse_11" data-name="Ellipse 11" cx="85" cy="85" r="85" transform="translate(1184 191)" fill="url(#linear-gradient)"/>
    <g id="swap-outline" transform="translate(1236 308.473) rotate(-90)">
      <g id="swap">
        <rect id="Rectangle_15" data-name="Rectangle 15" width="65.473" height="65.473" transform="translate(0 65.473) rotate(-90)" fill="#fff" opacity="0"/>
        <path id="Path_33" data-name="Path 33" d="M5.728,17.642H41.193l-4.365,3.274A2.728,2.728,0,0,0,40.1,25.281L51.014,17.1a2.728,2.728,0,0,0,0-4.338L40.483,4.575a2.731,2.731,0,1,0-3.355,4.31l4.283,3.3H5.728a2.728,2.728,0,1,0,0,5.456Z" transform="translate(5.184 6.91)" fill="#fff"/>
        <path id="Path_34" data-name="Path 34" d="M49.365,21.184H13.9l4.365-3.274a2.728,2.728,0,0,0-3.274-4.365L4.08,21.73a2.728,2.728,0,0,0,0,4.338l10.53,8.184a2.731,2.731,0,0,0,3.355-4.31l-4.283-3.3H49.365a2.728,2.728,0,0,0,0-5.456Z" transform="translate(5.196 22.464)" fill="#fff"/>
      </g>
    </g>
  </g>
</svg>
