<?xml version="1.0" encoding="utf-8"?>
<!-- Generator: Adobe Illustrator 23.0.3, SVG Export Plug-In . SVG Version: 6.00 Build 0)  -->
<svg version="1.1" id="Layer_1" xmlns="http://www.w3.org/2000/svg" xmlns:xlink="http://www.w3.org/1999/xlink" x="0px" y="0px"
	 viewBox="0 0 45.6 45.6" style="enable-background:new 0 0 45.6 45.6;" xml:space="preserve">
<style type="text/css">
	.st0{fill:url(#Path_9_1_);}
	.st1{enable-background:new    ;}
	.st2{fill:#FFFFFF;}
</style>
<g>
	
		<linearGradient id="Path_9_1_" gradientUnits="userSpaceOnUse" x1="-924.7985" y1="584.5674" x2="-923.5875" y2="583.4584" gradientTransform="matrix(2.794130e-15 45.6316 45.6316 -2.794130e-15 -26626.5957 42195.1875)">
		<stop  offset="0" style="stop-color:#FF8382"/>
		<stop  offset="1" style="stop-color:#FF355B"/>
	</linearGradient>
	<path id="Path_9" class="st0" d="M0.7,32L0.7,32c-0.9-6.1-0.9-12.3,0-18.4l0,0c1-6.7,6.3-11.9,12.9-12.9l0,0
		c6.1-0.9,12.3-0.9,18.4,0l0,0c6.7,1,11.9,6.3,12.9,12.9l0,0c0.9,6.1,0.9,12.3,0,18.4l0,0c-1,6.7-6.3,11.9-12.9,12.9l0,0
		c-6.1,0.9-12.3,0.9-18.4,0l0,0C6.9,43.9,1.7,38.7,0.7,32z"/>
	<g class="st1">
		<g>
			<path class="st2" d="M20.8,17.3c0.6,0.4,1.1,0.9,1.4,1.6c0.4,0.7,0.5,1.4,0.5,2.1c0,0.8-0.2,1.5-0.5,2.1
				c-0.4,0.7-0.8,1.2-1.4,1.6c-0.6,0.4-1.2,0.6-1.8,0.6h-3.3v3.6c0,0.3-0.1,0.6-0.3,0.8c-0.2,0.2-0.5,0.3-0.8,0.3
				c-0.3,0-0.6-0.1-0.8-0.3s-0.3-0.5-0.3-0.8v-11c0-0.3,0.1-0.6,0.3-0.8s0.5-0.3,0.8-0.3h4.3C19.6,16.7,20.2,16.9,20.8,17.3z
				 M19.6,22.8c0.2-0.2,0.4-0.5,0.6-0.8c0.1-0.3,0.2-0.7,0.2-1c0-0.4-0.1-0.7-0.2-1c-0.1-0.3-0.3-0.6-0.6-0.8s-0.5-0.3-0.7-0.3h-3.3
				v4.2h3.3C19.2,23.1,19.4,23,19.6,22.8z"/>
			<path class="st2" d="M24.5,29.7c-0.6-0.3-1.1-0.7-1.5-1.2c-0.2-0.2-0.2-0.4-0.2-0.7c0-0.3,0.1-0.6,0.4-0.8
				c0.2-0.2,0.5-0.3,0.7-0.3c0.3,0,0.7,0.2,1.1,0.6c0.2,0.2,0.5,0.4,0.7,0.5s0.5,0.1,0.9,0.1c0.4,0,0.7-0.1,1.1-0.3
				c0.3-0.2,0.6-0.4,0.8-0.8s0.3-0.7,0.3-1v-8c0-0.3,0.1-0.6,0.4-0.8s0.5-0.3,0.8-0.3c0.4,0,0.6,0.1,0.9,0.3
				c0.2,0.2,0.3,0.5,0.3,0.8v8c0,0.8-0.2,1.5-0.6,2.1c-0.4,0.7-1,1.2-1.7,1.6c-0.7,0.4-1.5,0.6-2.3,0.6C25.8,30.2,25.2,30,24.5,29.7
				z"/>
		</g>
	</g>
</g>
</svg>
