<svg xmlns="http://www.w3.org/2000/svg" width="924" height="819" viewBox="0 0 924 819">
  <g id="Group_9" data-name="Group 9" transform="translate(-960.846 -232.154)">
    <g id="Ellipse_7" data-name="Ellipse 7" transform="translate(1881.846 745.154) rotate(180)" fill="#b1b1b1" stroke="#b1b1b1" stroke-width="1">
      <circle cx="1.5" cy="1.5" r="1.5" stroke="none"/>
      <circle cx="1.5" cy="1.5" r="1" fill="none"/>
    </g>
    <g id="Ellipse_7-2" data-name="Ellipse 7" transform="translate(1881.846 643.154) rotate(180)" fill="#b1b1b1" stroke="#b1b1b1" stroke-width="1">
      <circle cx="1.5" cy="1.5" r="1.5" stroke="none"/>
      <circle cx="1.5" cy="1.5" r="1" fill="none"/>
    </g>
    <g id="Ellipse_7-3" data-name="Ellipse 7" transform="translate(1881.846 541.154) rotate(180)" fill="#b1b1b1" stroke="#b1b1b1" stroke-width="1">
      <circle cx="1.5" cy="1.5" r="1.5" stroke="none"/>
      <circle cx="1.5" cy="1.5" r="1" fill="none"/>
    </g>
    <g id="Ellipse_7-4" data-name="Ellipse 7" transform="translate(1881.846 439.154) rotate(180)" fill="#b1b1b1" stroke="#b1b1b1" stroke-width="1">
      <circle cx="1.5" cy="1.5" r="1.5" stroke="none"/>
      <circle cx="1.5" cy="1.5" r="1" fill="none"/>
    </g>
    <g id="Ellipse_7-5" data-name="Ellipse 7" transform="translate(1881.846 337.154) rotate(180)" fill="#b1b1b1" stroke="#b1b1b1" stroke-width="1">
      <circle cx="1.5" cy="1.5" r="1.5" stroke="none"/>
      <circle cx="1.5" cy="1.5" r="1" fill="none"/>
    </g>
    <g id="Ellipse_7-6" data-name="Ellipse 7" transform="translate(1881.846 235.154) rotate(180)" fill="#b1b1b1" stroke="#b1b1b1" stroke-width="1">
      <circle cx="1.5" cy="1.5" r="1.5" stroke="none"/>
      <circle cx="1.5" cy="1.5" r="1" fill="none"/>
    </g>
    <g id="Ellipse_7-7" data-name="Ellipse 7" transform="translate(1779.846 745.154) rotate(180)" fill="#b1b1b1" stroke="#b1b1b1" stroke-width="1">
      <circle cx="1.5" cy="1.5" r="1.5" stroke="none"/>
      <circle cx="1.5" cy="1.5" r="1" fill="none"/>
    </g>
    <g id="Ellipse_7-8" data-name="Ellipse 7" transform="translate(1779.846 643.154) rotate(180)" fill="#b1b1b1" stroke="#b1b1b1" stroke-width="1">
      <circle cx="1.5" cy="1.5" r="1.5" stroke="none"/>
      <circle cx="1.5" cy="1.5" r="1" fill="none"/>
    </g>
    <g id="Ellipse_7-9" data-name="Ellipse 7" transform="translate(1779.846 541.154) rotate(180)" fill="#b1b1b1" stroke="#b1b1b1" stroke-width="1">
      <circle cx="1.5" cy="1.5" r="1.5" stroke="none"/>
      <circle cx="1.5" cy="1.5" r="1" fill="none"/>
    </g>
    <g id="Ellipse_7-10" data-name="Ellipse 7" transform="translate(1779.846 439.154) rotate(180)" fill="#b1b1b1" stroke="#b1b1b1" stroke-width="1">
      <circle cx="1.5" cy="1.5" r="1.5" stroke="none"/>
      <circle cx="1.5" cy="1.5" r="1" fill="none"/>
    </g>
    <g id="Ellipse_7-11" data-name="Ellipse 7" transform="translate(1779.846 337.154) rotate(180)" fill="#b1b1b1" stroke="#b1b1b1" stroke-width="1">
      <circle cx="1.5" cy="1.5" r="1.5" stroke="none"/>
      <circle cx="1.5" cy="1.5" r="1" fill="none"/>
    </g>
    <g id="Ellipse_7-12" data-name="Ellipse 7" transform="translate(1779.846 235.154) rotate(180)" fill="#b1b1b1" stroke="#b1b1b1" stroke-width="1">
      <circle cx="1.5" cy="1.5" r="1.5" stroke="none"/>
      <circle cx="1.5" cy="1.5" r="1" fill="none"/>
    </g>
    <g id="Ellipse_7-13" data-name="Ellipse 7" transform="translate(1677.846 745.154) rotate(180)" fill="#b1b1b1" stroke="#b1b1b1" stroke-width="1">
      <circle cx="1.5" cy="1.5" r="1.5" stroke="none"/>
      <circle cx="1.5" cy="1.5" r="1" fill="none"/>
    </g>
    <g id="Ellipse_7-14" data-name="Ellipse 7" transform="translate(1677.846 643.154) rotate(180)" fill="#b1b1b1" stroke="#b1b1b1" stroke-width="1">
      <circle cx="1.5" cy="1.5" r="1.5" stroke="none"/>
      <circle cx="1.5" cy="1.5" r="1" fill="none"/>
    </g>
    <g id="Ellipse_7-15" data-name="Ellipse 7" transform="translate(1677.846 541.154) rotate(180)" fill="#b1b1b1" stroke="#b1b1b1" stroke-width="1">
      <circle cx="1.5" cy="1.5" r="1.5" stroke="none"/>
      <circle cx="1.5" cy="1.5" r="1" fill="none"/>
    </g>
    <g id="Ellipse_7-16" data-name="Ellipse 7" transform="translate(1677.846 439.154) rotate(180)" fill="#b1b1b1" stroke="#b1b1b1" stroke-width="1">
      <circle cx="1.5" cy="1.5" r="1.5" stroke="none"/>
      <circle cx="1.5" cy="1.5" r="1" fill="none"/>
    </g>
    <g id="Ellipse_7-17" data-name="Ellipse 7" transform="translate(1677.846 337.154) rotate(180)" fill="#b1b1b1" stroke="#b1b1b1" stroke-width="1">
      <circle cx="1.5" cy="1.5" r="1.5" stroke="none"/>
      <circle cx="1.5" cy="1.5" r="1" fill="none"/>
    </g>
    <g id="Ellipse_7-18" data-name="Ellipse 7" transform="translate(1677.846 235.154) rotate(180)" fill="#b1b1b1" stroke="#b1b1b1" stroke-width="1">
      <circle cx="1.5" cy="1.5" r="1.5" stroke="none"/>
      <circle cx="1.5" cy="1.5" r="1" fill="none"/>
    </g>
    <g id="Ellipse_7-19" data-name="Ellipse 7" transform="translate(1575.846 745.154) rotate(180)" fill="#b1b1b1" stroke="#b1b1b1" stroke-width="1">
      <circle cx="1.5" cy="1.5" r="1.5" stroke="none"/>
      <circle cx="1.5" cy="1.5" r="1" fill="none"/>
    </g>
    <g id="Ellipse_7-20" data-name="Ellipse 7" transform="translate(1575.846 643.154) rotate(180)" fill="#b1b1b1" stroke="#b1b1b1" stroke-width="1">
      <circle cx="1.5" cy="1.5" r="1.5" stroke="none"/>
      <circle cx="1.5" cy="1.5" r="1" fill="none"/>
    </g>
    <g id="Ellipse_7-21" data-name="Ellipse 7" transform="translate(1575.846 541.154) rotate(180)" fill="#b1b1b1" stroke="#b1b1b1" stroke-width="1">
      <circle cx="1.5" cy="1.5" r="1.5" stroke="none"/>
      <circle cx="1.5" cy="1.5" r="1" fill="none"/>
    </g>
    <g id="Ellipse_7-22" data-name="Ellipse 7" transform="translate(1575.846 439.154) rotate(180)" fill="#b1b1b1" stroke="#b1b1b1" stroke-width="1">
      <circle cx="1.5" cy="1.5" r="1.5" stroke="none"/>
      <circle cx="1.5" cy="1.5" r="1" fill="none"/>
    </g>
    <g id="Ellipse_7-23" data-name="Ellipse 7" transform="translate(1575.846 337.154) rotate(180)" fill="#b1b1b1" stroke="#b1b1b1" stroke-width="1">
      <circle cx="1.5" cy="1.5" r="1.5" stroke="none"/>
      <circle cx="1.5" cy="1.5" r="1" fill="none"/>
    </g>
    <g id="Ellipse_7-24" data-name="Ellipse 7" transform="translate(1575.846 235.154) rotate(180)" fill="#b1b1b1" stroke="#b1b1b1" stroke-width="1">
      <circle cx="1.5" cy="1.5" r="1.5" stroke="none"/>
      <circle cx="1.5" cy="1.5" r="1" fill="none"/>
    </g>
    <g id="Ellipse_7-25" data-name="Ellipse 7" transform="translate(1473.846 745.154) rotate(180)" fill="#b1b1b1" stroke="#b1b1b1" stroke-width="1">
      <circle cx="1.5" cy="1.5" r="1.5" stroke="none"/>
      <circle cx="1.5" cy="1.5" r="1" fill="none"/>
    </g>
    <g id="Ellipse_7-26" data-name="Ellipse 7" transform="translate(1473.846 643.154) rotate(180)" fill="#b1b1b1" stroke="#b1b1b1" stroke-width="1">
      <circle cx="1.5" cy="1.5" r="1.5" stroke="none"/>
      <circle cx="1.5" cy="1.5" r="1" fill="none"/>
    </g>
    <g id="Ellipse_7-27" data-name="Ellipse 7" transform="translate(1473.846 541.154) rotate(180)" fill="#b1b1b1" stroke="#b1b1b1" stroke-width="1">
      <circle cx="1.5" cy="1.5" r="1.5" stroke="none"/>
      <circle cx="1.5" cy="1.5" r="1" fill="none"/>
    </g>
    <g id="Ellipse_7-28" data-name="Ellipse 7" transform="translate(1473.846 439.154) rotate(180)" fill="#b1b1b1" stroke="#b1b1b1" stroke-width="1">
      <circle cx="1.5" cy="1.5" r="1.5" stroke="none"/>
      <circle cx="1.5" cy="1.5" r="1" fill="none"/>
    </g>
    <g id="Ellipse_7-29" data-name="Ellipse 7" transform="translate(1473.846 337.154) rotate(180)" fill="#b1b1b1" stroke="#b1b1b1" stroke-width="1">
      <circle cx="1.5" cy="1.5" r="1.5" stroke="none"/>
      <circle cx="1.5" cy="1.5" r="1" fill="none"/>
    </g>
    <g id="Ellipse_7-30" data-name="Ellipse 7" transform="translate(1473.846 235.154) rotate(180)" fill="#b1b1b1" stroke="#b1b1b1" stroke-width="1">
      <circle cx="1.5" cy="1.5" r="1.5" stroke="none"/>
      <circle cx="1.5" cy="1.5" r="1" fill="none"/>
    </g>
    <g id="Ellipse_7-31" data-name="Ellipse 7" transform="translate(1371.846 745.154) rotate(180)" fill="#b1b1b1" stroke="#b1b1b1" stroke-width="1">
      <circle cx="1.5" cy="1.5" r="1.5" stroke="none"/>
      <circle cx="1.5" cy="1.5" r="1" fill="none"/>
    </g>
    <g id="Ellipse_7-32" data-name="Ellipse 7" transform="translate(1371.846 643.154) rotate(180)" fill="#b1b1b1" stroke="#b1b1b1" stroke-width="1">
      <circle cx="1.5" cy="1.5" r="1.5" stroke="none"/>
      <circle cx="1.5" cy="1.5" r="1" fill="none"/>
    </g>
    <g id="Ellipse_7-33" data-name="Ellipse 7" transform="translate(1371.846 541.154) rotate(180)" fill="#b1b1b1" stroke="#b1b1b1" stroke-width="1">
      <circle cx="1.5" cy="1.5" r="1.5" stroke="none"/>
      <circle cx="1.5" cy="1.5" r="1" fill="none"/>
    </g>
    <g id="Ellipse_7-34" data-name="Ellipse 7" transform="translate(1371.846 439.154) rotate(180)" fill="#b1b1b1" stroke="#b1b1b1" stroke-width="1">
      <circle cx="1.5" cy="1.5" r="1.5" stroke="none"/>
      <circle cx="1.5" cy="1.5" r="1" fill="none"/>
    </g>
    <g id="Ellipse_7-35" data-name="Ellipse 7" transform="translate(1371.846 337.154) rotate(180)" fill="#b1b1b1" stroke="#b1b1b1" stroke-width="1">
      <circle cx="1.5" cy="1.5" r="1.5" stroke="none"/>
      <circle cx="1.5" cy="1.5" r="1" fill="none"/>
    </g>
    <g id="Ellipse_7-36" data-name="Ellipse 7" transform="translate(1371.846 235.154) rotate(180)" fill="#b1b1b1" stroke="#b1b1b1" stroke-width="1">
      <circle cx="1.5" cy="1.5" r="1.5" stroke="none"/>
      <circle cx="1.5" cy="1.5" r="1" fill="none"/>
    </g>
    <g id="Ellipse_7-37" data-name="Ellipse 7" transform="translate(1269.846 745.154) rotate(180)" fill="#b1b1b1" stroke="#b1b1b1" stroke-width="1">
      <circle cx="1.5" cy="1.5" r="1.5" stroke="none"/>
      <circle cx="1.5" cy="1.5" r="1" fill="none"/>
    </g>
    <g id="Ellipse_7-38" data-name="Ellipse 7" transform="translate(1269.846 643.154) rotate(180)" fill="#b1b1b1" stroke="#b1b1b1" stroke-width="1">
      <circle cx="1.5" cy="1.5" r="1.5" stroke="none"/>
      <circle cx="1.5" cy="1.5" r="1" fill="none"/>
    </g>
    <g id="Ellipse_7-39" data-name="Ellipse 7" transform="translate(1269.846 541.154) rotate(180)" fill="#b1b1b1" stroke="#b1b1b1" stroke-width="1">
      <circle cx="1.5" cy="1.5" r="1.5" stroke="none"/>
      <circle cx="1.5" cy="1.5" r="1" fill="none"/>
    </g>
    <g id="Ellipse_7-40" data-name="Ellipse 7" transform="translate(1269.846 439.154) rotate(180)" fill="#b1b1b1" stroke="#b1b1b1" stroke-width="1">
      <circle cx="1.5" cy="1.5" r="1.5" stroke="none"/>
      <circle cx="1.5" cy="1.5" r="1" fill="none"/>
    </g>
    <g id="Ellipse_7-41" data-name="Ellipse 7" transform="translate(1269.846 337.154) rotate(180)" fill="#b1b1b1" stroke="#b1b1b1" stroke-width="1">
      <circle cx="1.5" cy="1.5" r="1.5" stroke="none"/>
      <circle cx="1.5" cy="1.5" r="1" fill="none"/>
    </g>
    <g id="Ellipse_7-42" data-name="Ellipse 7" transform="translate(1269.846 235.154) rotate(180)" fill="#b1b1b1" stroke="#b1b1b1" stroke-width="1">
      <circle cx="1.5" cy="1.5" r="1.5" stroke="none"/>
      <circle cx="1.5" cy="1.5" r="1" fill="none"/>
    </g>
    <g id="Ellipse_7-43" data-name="Ellipse 7" transform="translate(1167.846 745.154) rotate(180)" fill="#b1b1b1" stroke="#b1b1b1" stroke-width="1">
      <circle cx="1.5" cy="1.5" r="1.5" stroke="none"/>
      <circle cx="1.5" cy="1.5" r="1" fill="none"/>
    </g>
    <g id="Ellipse_7-44" data-name="Ellipse 7" transform="translate(1167.846 643.154) rotate(180)" fill="#b1b1b1" stroke="#b1b1b1" stroke-width="1">
      <circle cx="1.5" cy="1.5" r="1.5" stroke="none"/>
      <circle cx="1.5" cy="1.5" r="1" fill="none"/>
    </g>
    <g id="Ellipse_7-45" data-name="Ellipse 7" transform="translate(1167.846 541.154) rotate(180)" fill="#b1b1b1" stroke="#b1b1b1" stroke-width="1">
      <circle cx="1.5" cy="1.5" r="1.5" stroke="none"/>
      <circle cx="1.5" cy="1.5" r="1" fill="none"/>
    </g>
    <g id="Ellipse_7-46" data-name="Ellipse 7" transform="translate(1167.846 439.154) rotate(180)" fill="#b1b1b1" stroke="#b1b1b1" stroke-width="1">
      <circle cx="1.5" cy="1.5" r="1.5" stroke="none"/>
      <circle cx="1.5" cy="1.5" r="1" fill="none"/>
    </g>
    <g id="Ellipse_7-47" data-name="Ellipse 7" transform="translate(1167.846 337.154) rotate(180)" fill="#b1b1b1" stroke="#b1b1b1" stroke-width="1">
      <circle cx="1.5" cy="1.5" r="1.5" stroke="none"/>
      <circle cx="1.5" cy="1.5" r="1" fill="none"/>
    </g>
    <g id="Ellipse_7-48" data-name="Ellipse 7" transform="translate(1167.846 235.154) rotate(180)" fill="#b1b1b1" stroke="#b1b1b1" stroke-width="1">
      <circle cx="1.5" cy="1.5" r="1.5" stroke="none"/>
      <circle cx="1.5" cy="1.5" r="1" fill="none"/>
    </g>
    <g id="Ellipse_7-49" data-name="Ellipse 7" transform="translate(1065.846 745.154) rotate(180)" fill="#b1b1b1" stroke="#b1b1b1" stroke-width="1">
      <circle cx="1.5" cy="1.5" r="1.5" stroke="none"/>
      <circle cx="1.5" cy="1.5" r="1" fill="none"/>
    </g>
    <g id="Ellipse_7-50" data-name="Ellipse 7" transform="translate(1065.846 643.154) rotate(180)" fill="#b1b1b1" stroke="#b1b1b1" stroke-width="1">
      <circle cx="1.5" cy="1.5" r="1.5" stroke="none"/>
      <circle cx="1.5" cy="1.5" r="1" fill="none"/>
    </g>
    <g id="Ellipse_7-51" data-name="Ellipse 7" transform="translate(1065.846 541.154) rotate(180)" fill="#b1b1b1" stroke="#b1b1b1" stroke-width="1">
      <circle cx="1.5" cy="1.5" r="1.5" stroke="none"/>
      <circle cx="1.5" cy="1.5" r="1" fill="none"/>
    </g>
    <g id="Ellipse_7-52" data-name="Ellipse 7" transform="translate(1065.846 439.154) rotate(180)" fill="#b1b1b1" stroke="#b1b1b1" stroke-width="1">
      <circle cx="1.5" cy="1.5" r="1.5" stroke="none"/>
      <circle cx="1.5" cy="1.5" r="1" fill="none"/>
    </g>
    <g id="Ellipse_7-53" data-name="Ellipse 7" transform="translate(1065.846 337.154) rotate(180)" fill="#b1b1b1" stroke="#b1b1b1" stroke-width="1">
      <circle cx="1.5" cy="1.5" r="1.5" stroke="none"/>
      <circle cx="1.5" cy="1.5" r="1" fill="none"/>
    </g>
    <g id="Ellipse_7-54" data-name="Ellipse 7" transform="translate(1065.846 235.154) rotate(180)" fill="#b1b1b1" stroke="#b1b1b1" stroke-width="1">
      <circle cx="1.5" cy="1.5" r="1.5" stroke="none"/>
      <circle cx="1.5" cy="1.5" r="1" fill="none"/>
    </g>
    <g id="Group_5" data-name="Group 5">
      <g id="Ellipse_7-55" data-name="Ellipse 7" transform="translate(1881.846 847.154) rotate(180)" fill="#b1b1b1" stroke="#b1b1b1" stroke-width="1">
        <circle cx="1.5" cy="1.5" r="1.5" stroke="none"/>
        <circle cx="1.5" cy="1.5" r="1" fill="none"/>
      </g>
      <g id="Ellipse_7-56" data-name="Ellipse 7" transform="translate(1779.846 847.154) rotate(180)" fill="#b1b1b1" stroke="#b1b1b1" stroke-width="1">
        <circle cx="1.5" cy="1.5" r="1.5" stroke="none"/>
        <circle cx="1.5" cy="1.5" r="1" fill="none"/>
      </g>
      <g id="Ellipse_7-57" data-name="Ellipse 7" transform="translate(1677.846 847.154) rotate(180)" fill="#b1b1b1" stroke="#b1b1b1" stroke-width="1">
        <circle cx="1.5" cy="1.5" r="1.5" stroke="none"/>
        <circle cx="1.5" cy="1.5" r="1" fill="none"/>
      </g>
      <g id="Ellipse_7-58" data-name="Ellipse 7" transform="translate(1575.846 847.154) rotate(180)" fill="#b1b1b1" stroke="#b1b1b1" stroke-width="1">
        <circle cx="1.5" cy="1.5" r="1.5" stroke="none"/>
        <circle cx="1.5" cy="1.5" r="1" fill="none"/>
      </g>
      <g id="Ellipse_7-59" data-name="Ellipse 7" transform="translate(1473.846 847.154) rotate(180)" fill="#b1b1b1" stroke="#b1b1b1" stroke-width="1">
        <circle cx="1.5" cy="1.5" r="1.5" stroke="none"/>
        <circle cx="1.5" cy="1.5" r="1" fill="none"/>
      </g>
      <g id="Ellipse_7-60" data-name="Ellipse 7" transform="translate(1371.846 847.154) rotate(180)" fill="#b1b1b1" stroke="#b1b1b1" stroke-width="1">
        <circle cx="1.5" cy="1.5" r="1.5" stroke="none"/>
        <circle cx="1.5" cy="1.5" r="1" fill="none"/>
      </g>
      <g id="Ellipse_7-61" data-name="Ellipse 7" transform="translate(1269.846 847.154) rotate(180)" fill="#b1b1b1" stroke="#b1b1b1" stroke-width="1">
        <circle cx="1.5" cy="1.5" r="1.5" stroke="none"/>
        <circle cx="1.5" cy="1.5" r="1" fill="none"/>
      </g>
      <g id="Ellipse_7-62" data-name="Ellipse 7" transform="translate(1167.846 847.154) rotate(180)" fill="#b1b1b1" stroke="#b1b1b1" stroke-width="1">
        <circle cx="1.5" cy="1.5" r="1.5" stroke="none"/>
        <circle cx="1.5" cy="1.5" r="1" fill="none"/>
      </g>
      <g id="Ellipse_7-63" data-name="Ellipse 7" transform="translate(1065.846 847.154) rotate(180)" fill="#b1b1b1" stroke="#b1b1b1" stroke-width="1">
        <circle cx="1.5" cy="1.5" r="1.5" stroke="none"/>
        <circle cx="1.5" cy="1.5" r="1" fill="none"/>
      </g>
      <g id="Ellipse_7-64" data-name="Ellipse 7" transform="translate(963.846 847.154) rotate(180)" fill="#b1b1b1" stroke="#b1b1b1" stroke-width="1">
        <circle cx="1.5" cy="1.5" r="1.5" stroke="none"/>
        <circle cx="1.5" cy="1.5" r="1" fill="none"/>
      </g>
    </g>
    <g id="Group_7" data-name="Group 7" transform="translate(3 102)">
      <g id="Ellipse_7-65" data-name="Ellipse 7" transform="translate(1881.846 847.154) rotate(180)" fill="#b1b1b1" stroke="#b1b1b1" stroke-width="1">
        <circle cx="1.5" cy="1.5" r="1.5" stroke="none"/>
        <circle cx="1.5" cy="1.5" r="1" fill="none"/>
      </g>
      <g id="Ellipse_7-66" data-name="Ellipse 7" transform="translate(1779.846 847.154) rotate(180)" fill="#b1b1b1" stroke="#b1b1b1" stroke-width="1">
        <circle cx="1.5" cy="1.5" r="1.5" stroke="none"/>
        <circle cx="1.5" cy="1.5" r="1" fill="none"/>
      </g>
      <g id="Ellipse_7-67" data-name="Ellipse 7" transform="translate(1677.846 847.154) rotate(180)" fill="#b1b1b1" stroke="#b1b1b1" stroke-width="1">
        <circle cx="1.5" cy="1.5" r="1.5" stroke="none"/>
        <circle cx="1.5" cy="1.5" r="1" fill="none"/>
      </g>
      <g id="Ellipse_7-68" data-name="Ellipse 7" transform="translate(1575.846 847.154) rotate(180)" fill="#b1b1b1" stroke="#b1b1b1" stroke-width="1">
        <circle cx="1.5" cy="1.5" r="1.5" stroke="none"/>
        <circle cx="1.5" cy="1.5" r="1" fill="none"/>
      </g>
      <g id="Ellipse_7-69" data-name="Ellipse 7" transform="translate(1473.846 847.154) rotate(180)" fill="#b1b1b1" stroke="#b1b1b1" stroke-width="1">
        <circle cx="1.5" cy="1.5" r="1.5" stroke="none"/>
        <circle cx="1.5" cy="1.5" r="1" fill="none"/>
      </g>
      <g id="Ellipse_7-70" data-name="Ellipse 7" transform="translate(1371.846 847.154) rotate(180)" fill="#b1b1b1" stroke="#b1b1b1" stroke-width="1">
        <circle cx="1.5" cy="1.5" r="1.5" stroke="none"/>
        <circle cx="1.5" cy="1.5" r="1" fill="none"/>
      </g>
      <g id="Ellipse_7-71" data-name="Ellipse 7" transform="translate(1269.846 847.154) rotate(180)" fill="#b1b1b1" stroke="#b1b1b1" stroke-width="1">
        <circle cx="1.5" cy="1.5" r="1.5" stroke="none"/>
        <circle cx="1.5" cy="1.5" r="1" fill="none"/>
      </g>
      <g id="Ellipse_7-72" data-name="Ellipse 7" transform="translate(1167.846 847.154) rotate(180)" fill="#b1b1b1" stroke="#b1b1b1" stroke-width="1">
        <circle cx="1.5" cy="1.5" r="1.5" stroke="none"/>
        <circle cx="1.5" cy="1.5" r="1" fill="none"/>
      </g>
      <g id="Ellipse_7-73" data-name="Ellipse 7" transform="translate(1065.846 847.154) rotate(180)" fill="#b1b1b1" stroke="#b1b1b1" stroke-width="1">
        <circle cx="1.5" cy="1.5" r="1.5" stroke="none"/>
        <circle cx="1.5" cy="1.5" r="1" fill="none"/>
      </g>
      <g id="Ellipse_7-74" data-name="Ellipse 7" transform="translate(963.846 847.154) rotate(180)" fill="#b1b1b1" stroke="#b1b1b1" stroke-width="1">
        <circle cx="1.5" cy="1.5" r="1.5" stroke="none"/>
        <circle cx="1.5" cy="1.5" r="1" fill="none"/>
      </g>
    </g>
    <g id="Group_8" data-name="Group 8" transform="translate(3 204)">
      <g id="Ellipse_7-75" data-name="Ellipse 7" transform="translate(1881.846 847.154) rotate(180)" fill="#b1b1b1" stroke="#b1b1b1" stroke-width="1">
        <circle cx="1.5" cy="1.5" r="1.5" stroke="none"/>
        <circle cx="1.5" cy="1.5" r="1" fill="none"/>
      </g>
      <g id="Ellipse_7-76" data-name="Ellipse 7" transform="translate(1779.846 847.154) rotate(180)" fill="#b1b1b1" stroke="#b1b1b1" stroke-width="1">
        <circle cx="1.5" cy="1.5" r="1.5" stroke="none"/>
        <circle cx="1.5" cy="1.5" r="1" fill="none"/>
      </g>
      <g id="Ellipse_7-77" data-name="Ellipse 7" transform="translate(1677.846 847.154) rotate(180)" fill="#b1b1b1" stroke="#b1b1b1" stroke-width="1">
        <circle cx="1.5" cy="1.5" r="1.5" stroke="none"/>
        <circle cx="1.5" cy="1.5" r="1" fill="none"/>
      </g>
      <g id="Ellipse_7-78" data-name="Ellipse 7" transform="translate(1575.846 847.154) rotate(180)" fill="#b1b1b1" stroke="#b1b1b1" stroke-width="1">
        <circle cx="1.5" cy="1.5" r="1.5" stroke="none"/>
        <circle cx="1.5" cy="1.5" r="1" fill="none"/>
      </g>
      <g id="Ellipse_7-79" data-name="Ellipse 7" transform="translate(1473.846 847.154) rotate(180)" fill="#b1b1b1" stroke="#b1b1b1" stroke-width="1">
        <circle cx="1.5" cy="1.5" r="1.5" stroke="none"/>
        <circle cx="1.5" cy="1.5" r="1" fill="none"/>
      </g>
      <g id="Ellipse_7-80" data-name="Ellipse 7" transform="translate(1371.846 847.154) rotate(180)" fill="#b1b1b1" stroke="#b1b1b1" stroke-width="1">
        <circle cx="1.5" cy="1.5" r="1.5" stroke="none"/>
        <circle cx="1.5" cy="1.5" r="1" fill="none"/>
      </g>
      <g id="Ellipse_7-81" data-name="Ellipse 7" transform="translate(1269.846 847.154) rotate(180)" fill="#b1b1b1" stroke="#b1b1b1" stroke-width="1">
        <circle cx="1.5" cy="1.5" r="1.5" stroke="none"/>
        <circle cx="1.5" cy="1.5" r="1" fill="none"/>
      </g>
      <g id="Ellipse_7-82" data-name="Ellipse 7" transform="translate(1167.846 847.154) rotate(180)" fill="#b1b1b1" stroke="#b1b1b1" stroke-width="1">
        <circle cx="1.5" cy="1.5" r="1.5" stroke="none"/>
        <circle cx="1.5" cy="1.5" r="1" fill="none"/>
      </g>
      <g id="Ellipse_7-83" data-name="Ellipse 7" transform="translate(1065.846 847.154) rotate(180)" fill="#b1b1b1" stroke="#b1b1b1" stroke-width="1">
        <circle cx="1.5" cy="1.5" r="1.5" stroke="none"/>
        <circle cx="1.5" cy="1.5" r="1" fill="none"/>
      </g>
      <g id="Ellipse_7-84" data-name="Ellipse 7" transform="translate(963.846 847.154) rotate(180)" fill="#b1b1b1" stroke="#b1b1b1" stroke-width="1">
        <circle cx="1.5" cy="1.5" r="1.5" stroke="none"/>
        <circle cx="1.5" cy="1.5" r="1" fill="none"/>
      </g>
    </g>
    <g id="Ellipse_7-85" data-name="Ellipse 7" transform="translate(963.846 745.154) rotate(180)" fill="#b1b1b1" stroke="#b1b1b1" stroke-width="1">
      <circle cx="1.5" cy="1.5" r="1.5" stroke="none"/>
      <circle cx="1.5" cy="1.5" r="1" fill="none"/>
    </g>
    <g id="Ellipse_7-86" data-name="Ellipse 7" transform="translate(963.846 643.154) rotate(180)" fill="#b1b1b1" stroke="#b1b1b1" stroke-width="1">
      <circle cx="1.5" cy="1.5" r="1.5" stroke="none"/>
      <circle cx="1.5" cy="1.5" r="1" fill="none"/>
    </g>
    <g id="Ellipse_7-87" data-name="Ellipse 7" transform="translate(963.846 541.154) rotate(180)" fill="#b1b1b1" stroke="#b1b1b1" stroke-width="1">
      <circle cx="1.5" cy="1.5" r="1.5" stroke="none"/>
      <circle cx="1.5" cy="1.5" r="1" fill="none"/>
    </g>
    <g id="Ellipse_7-88" data-name="Ellipse 7" transform="translate(963.846 439.154) rotate(180)" fill="#b1b1b1" stroke="#b1b1b1" stroke-width="1">
      <circle cx="1.5" cy="1.5" r="1.5" stroke="none"/>
      <circle cx="1.5" cy="1.5" r="1" fill="none"/>
    </g>
    <g id="Ellipse_7-89" data-name="Ellipse 7" transform="translate(963.846 337.154) rotate(180)" fill="#b1b1b1" stroke="#b1b1b1" stroke-width="1">
      <circle cx="1.5" cy="1.5" r="1.5" stroke="none"/>
      <circle cx="1.5" cy="1.5" r="1" fill="none"/>
    </g>
    <g id="Ellipse_7-90" data-name="Ellipse 7" transform="translate(963.846 235.154) rotate(180)" fill="#b1b1b1" stroke="#b1b1b1" stroke-width="1">
      <circle cx="1.5" cy="1.5" r="1.5" stroke="none"/>
      <circle cx="1.5" cy="1.5" r="1" fill="none"/>
    </g>
  </g>
</svg>
