<svg id="file-text-outline" xmlns="http://www.w3.org/2000/svg" xmlns:xlink="http://www.w3.org/1999/xlink" width="107.512" height="107.512" viewBox="0 0 107.512 107.512">
  <defs>
    <linearGradient id="linear-gradient" x1="0.945" y1="-0.177" x2="0.102" y2="1" gradientUnits="objectBoundingBox">
      <stop offset="0" stop-color="#ffb199"/>
      <stop offset="1" stop-color="#ff0844"/>
    </linearGradient>
  </defs>
  <g id="file-text">
    <rect id="Rectangle_2" data-name="Rectangle 2" width="107.512" height="107.513" opacity="0" fill="url(#linear-gradient)"/>
    <path id="Path_9" data-name="Path 9" d="M39.358,16H12.48a4.48,4.48,0,0,0,0,8.959H39.358a4.48,4.48,0,0,0,0-8.959Z" transform="translate(27.837 55.675)" fill="url(#linear-gradient)"/>
    <path id="Path_10" data-name="Path 10" d="M12.48,20.959H25.919a4.48,4.48,0,0,0,0-8.959H12.48a4.48,4.48,0,1,0,0,8.959Z" transform="translate(27.837 41.756)" fill="url(#linear-gradient)"/>
    <path id="Path_11" data-name="Path 11" d="M74.51,30.357,50.141,3.479A4.48,4.48,0,0,0,46.826,2H15.468A11.334,11.334,0,0,0,4,13.2V80.4a11.334,11.334,0,0,0,11.468,11.2H64.207A11.334,11.334,0,0,0,75.675,80.4V33.358a4.48,4.48,0,0,0-1.165-3ZM48.8,15.44,61.071,28.879H52.112A3.539,3.539,0,0,1,48.8,25.071Zm15.41,67.2H15.468a2.374,2.374,0,0,1-2.509-2.24V13.2a2.374,2.374,0,0,1,2.509-2.24H39.837V25.071a12.5,12.5,0,0,0,12.14,12.767H66.716V80.4a2.374,2.374,0,0,1-2.509,2.24Z" transform="translate(13.919 6.959)" fill="url(#linear-gradient)"/>
  </g>
</svg>
