<svg xmlns="http://www.w3.org/2000/svg" width="358.908" height="239.855" viewBox="0 0 358.908 239.855">
  <g id="Group_79" data-name="Group 79" transform="translate(-864.514 -252.496)" opacity="0.5">
    <g id="Ellipse_7" data-name="Ellipse 7" transform="translate(1223.421 492.351) rotate(180)" fill="#949494" stroke="#949494" stroke-width="1">
      <circle cx="0.875" cy="0.875" r="0.875" stroke="none"/>
      <circle cx="0.875" cy="0.875" r="0.375" fill="none"/>
    </g>
    <g id="Ellipse_7-2" data-name="Ellipse 7" transform="translate(1223.421 432.825) rotate(180)" fill="#949494" stroke="#949494" stroke-width="1">
      <circle cx="0.875" cy="0.875" r="0.875" stroke="none"/>
      <circle cx="0.875" cy="0.875" r="0.375" fill="none"/>
    </g>
    <g id="Ellipse_7-3" data-name="Ellipse 7" transform="translate(1223.421 373.299) rotate(180)" fill="#949494" stroke="#949494" stroke-width="1">
      <circle cx="0.875" cy="0.875" r="0.875" stroke="none"/>
      <circle cx="0.875" cy="0.875" r="0.375" fill="none"/>
    </g>
    <g id="Ellipse_7-4" data-name="Ellipse 7" transform="translate(1223.421 313.773) rotate(180)" fill="#949494" stroke="#949494" stroke-width="1">
      <circle cx="0.875" cy="0.875" r="0.875" stroke="none"/>
      <circle cx="0.875" cy="0.875" r="0.375" fill="none"/>
    </g>
    <g id="Ellipse_7-5" data-name="Ellipse 7" transform="translate(1223.421 254.247) rotate(180)" fill="#949494" stroke="#949494" stroke-width="1">
      <circle cx="0.875" cy="0.875" r="0.875" stroke="none"/>
      <circle cx="0.875" cy="0.875" r="0.375" fill="none"/>
    </g>
    <g id="Ellipse_7-6" data-name="Ellipse 7" transform="translate(1163.895 492.351) rotate(180)" fill="#949494" stroke="#949494" stroke-width="1">
      <circle cx="0.875" cy="0.875" r="0.875" stroke="none"/>
      <circle cx="0.875" cy="0.875" r="0.375" fill="none"/>
    </g>
    <g id="Ellipse_7-7" data-name="Ellipse 7" transform="translate(1163.895 432.825) rotate(180)" fill="#949494" stroke="#949494" stroke-width="1">
      <circle cx="0.875" cy="0.875" r="0.875" stroke="none"/>
      <circle cx="0.875" cy="0.875" r="0.375" fill="none"/>
    </g>
    <g id="Ellipse_7-8" data-name="Ellipse 7" transform="translate(1163.895 373.299) rotate(180)" fill="#949494" stroke="#949494" stroke-width="1">
      <circle cx="0.875" cy="0.875" r="0.875" stroke="none"/>
      <circle cx="0.875" cy="0.875" r="0.375" fill="none"/>
    </g>
    <g id="Ellipse_7-9" data-name="Ellipse 7" transform="translate(1163.895 313.773) rotate(180)" fill="#949494" stroke="#949494" stroke-width="1">
      <circle cx="0.875" cy="0.875" r="0.875" stroke="none"/>
      <circle cx="0.875" cy="0.875" r="0.375" fill="none"/>
    </g>
    <g id="Ellipse_7-10" data-name="Ellipse 7" transform="translate(1163.895 254.247) rotate(180)" fill="#949494" stroke="#949494" stroke-width="1">
      <circle cx="0.875" cy="0.875" r="0.875" stroke="none"/>
      <circle cx="0.875" cy="0.875" r="0.375" fill="none"/>
    </g>
    <g id="Ellipse_7-11" data-name="Ellipse 7" transform="translate(1104.369 492.351) rotate(180)" fill="#949494" stroke="#949494" stroke-width="1">
      <circle cx="0.875" cy="0.875" r="0.875" stroke="none"/>
      <circle cx="0.875" cy="0.875" r="0.375" fill="none"/>
    </g>
    <g id="Ellipse_7-12" data-name="Ellipse 7" transform="translate(1104.369 432.825) rotate(180)" fill="#949494" stroke="#949494" stroke-width="1">
      <circle cx="0.875" cy="0.875" r="0.875" stroke="none"/>
      <circle cx="0.875" cy="0.875" r="0.375" fill="none"/>
    </g>
    <g id="Ellipse_7-13" data-name="Ellipse 7" transform="translate(1104.369 373.299) rotate(180)" fill="#949494" stroke="#949494" stroke-width="1">
      <circle cx="0.875" cy="0.875" r="0.875" stroke="none"/>
      <circle cx="0.875" cy="0.875" r="0.375" fill="none"/>
    </g>
    <g id="Ellipse_7-14" data-name="Ellipse 7" transform="translate(1104.369 313.773) rotate(180)" fill="#949494" stroke="#949494" stroke-width="1">
      <circle cx="0.875" cy="0.875" r="0.875" stroke="none"/>
      <circle cx="0.875" cy="0.875" r="0.375" fill="none"/>
    </g>
    <g id="Ellipse_7-15" data-name="Ellipse 7" transform="translate(1104.369 254.247) rotate(180)" fill="#949494" stroke="#949494" stroke-width="1">
      <circle cx="0.875" cy="0.875" r="0.875" stroke="none"/>
      <circle cx="0.875" cy="0.875" r="0.375" fill="none"/>
    </g>
    <g id="Ellipse_7-16" data-name="Ellipse 7" transform="translate(1044.843 492.351) rotate(180)" fill="#949494" stroke="#949494" stroke-width="1">
      <circle cx="0.875" cy="0.875" r="0.875" stroke="none"/>
      <circle cx="0.875" cy="0.875" r="0.375" fill="none"/>
    </g>
    <g id="Ellipse_7-17" data-name="Ellipse 7" transform="translate(1044.843 432.825) rotate(180)" fill="#949494" stroke="#949494" stroke-width="1">
      <circle cx="0.875" cy="0.875" r="0.875" stroke="none"/>
      <circle cx="0.875" cy="0.875" r="0.375" fill="none"/>
    </g>
    <g id="Ellipse_7-18" data-name="Ellipse 7" transform="translate(1044.843 373.299) rotate(180)" fill="#949494" stroke="#949494" stroke-width="1">
      <circle cx="0.875" cy="0.875" r="0.875" stroke="none"/>
      <circle cx="0.875" cy="0.875" r="0.375" fill="none"/>
    </g>
    <g id="Ellipse_7-19" data-name="Ellipse 7" transform="translate(1044.843 313.773) rotate(180)" fill="#949494" stroke="#949494" stroke-width="1">
      <circle cx="0.875" cy="0.875" r="0.875" stroke="none"/>
      <circle cx="0.875" cy="0.875" r="0.375" fill="none"/>
    </g>
    <g id="Ellipse_7-20" data-name="Ellipse 7" transform="translate(1044.843 254.247) rotate(180)" fill="#949494" stroke="#949494" stroke-width="1">
      <circle cx="0.875" cy="0.875" r="0.875" stroke="none"/>
      <circle cx="0.875" cy="0.875" r="0.375" fill="none"/>
    </g>
    <g id="Ellipse_7-21" data-name="Ellipse 7" transform="translate(985.317 492.351) rotate(180)" fill="#949494" stroke="#949494" stroke-width="1">
      <circle cx="0.875" cy="0.875" r="0.875" stroke="none"/>
      <circle cx="0.875" cy="0.875" r="0.375" fill="none"/>
    </g>
    <g id="Ellipse_7-22" data-name="Ellipse 7" transform="translate(985.317 432.825) rotate(180)" fill="#949494" stroke="#949494" stroke-width="1">
      <circle cx="0.875" cy="0.875" r="0.875" stroke="none"/>
      <circle cx="0.875" cy="0.875" r="0.375" fill="none"/>
    </g>
    <g id="Ellipse_7-23" data-name="Ellipse 7" transform="translate(985.317 373.299) rotate(180)" fill="#949494" stroke="#949494" stroke-width="1">
      <circle cx="0.875" cy="0.875" r="0.875" stroke="none"/>
      <circle cx="0.875" cy="0.875" r="0.375" fill="none"/>
    </g>
    <g id="Ellipse_7-24" data-name="Ellipse 7" transform="translate(985.317 313.773) rotate(180)" fill="#949494" stroke="#949494" stroke-width="1">
      <circle cx="0.875" cy="0.875" r="0.875" stroke="none"/>
      <circle cx="0.875" cy="0.875" r="0.375" fill="none"/>
    </g>
    <g id="Ellipse_7-25" data-name="Ellipse 7" transform="translate(985.317 254.247) rotate(180)" fill="#949494" stroke="#949494" stroke-width="1">
      <circle cx="0.875" cy="0.875" r="0.875" stroke="none"/>
      <circle cx="0.875" cy="0.875" r="0.375" fill="none"/>
    </g>
    <g id="Ellipse_7-26" data-name="Ellipse 7" transform="translate(925.791 492.351) rotate(180)" fill="#949494" stroke="#949494" stroke-width="1">
      <circle cx="0.875" cy="0.875" r="0.875" stroke="none"/>
      <circle cx="0.875" cy="0.875" r="0.375" fill="none"/>
    </g>
    <g id="Ellipse_7-27" data-name="Ellipse 7" transform="translate(925.791 432.825) rotate(180)" fill="#949494" stroke="#949494" stroke-width="1">
      <circle cx="0.875" cy="0.875" r="0.875" stroke="none"/>
      <circle cx="0.875" cy="0.875" r="0.375" fill="none"/>
    </g>
    <g id="Ellipse_7-28" data-name="Ellipse 7" transform="translate(925.791 373.299) rotate(180)" fill="#949494" stroke="#949494" stroke-width="1">
      <circle cx="0.875" cy="0.875" r="0.875" stroke="none"/>
      <circle cx="0.875" cy="0.875" r="0.375" fill="none"/>
    </g>
    <g id="Ellipse_7-29" data-name="Ellipse 7" transform="translate(925.791 313.773) rotate(180)" fill="#949494" stroke="#949494" stroke-width="1">
      <circle cx="0.875" cy="0.875" r="0.875" stroke="none"/>
      <circle cx="0.875" cy="0.875" r="0.375" fill="none"/>
    </g>
    <g id="Ellipse_7-30" data-name="Ellipse 7" transform="translate(925.791 254.247) rotate(180)" fill="#949494" stroke="#949494" stroke-width="1">
      <circle cx="0.875" cy="0.875" r="0.875" stroke="none"/>
      <circle cx="0.875" cy="0.875" r="0.375" fill="none"/>
    </g>
    <g id="Ellipse_7-31" data-name="Ellipse 7" transform="translate(866.264 492.351) rotate(180)" fill="#949494" stroke="#949494" stroke-width="1">
      <circle cx="0.875" cy="0.875" r="0.875" stroke="none"/>
      <circle cx="0.875" cy="0.875" r="0.375" fill="none"/>
    </g>
    <g id="Ellipse_7-32" data-name="Ellipse 7" transform="translate(866.264 432.825) rotate(180)" fill="#949494" stroke="#949494" stroke-width="1">
      <circle cx="0.875" cy="0.875" r="0.875" stroke="none"/>
      <circle cx="0.875" cy="0.875" r="0.375" fill="none"/>
    </g>
    <g id="Ellipse_7-33" data-name="Ellipse 7" transform="translate(866.264 373.299) rotate(180)" fill="#949494" stroke="#949494" stroke-width="1">
      <circle cx="0.875" cy="0.875" r="0.875" stroke="none"/>
      <circle cx="0.875" cy="0.875" r="0.375" fill="none"/>
    </g>
    <g id="Ellipse_7-34" data-name="Ellipse 7" transform="translate(866.264 313.773) rotate(180)" fill="#949494" stroke="#949494" stroke-width="1">
      <circle cx="0.875" cy="0.875" r="0.875" stroke="none"/>
      <circle cx="0.875" cy="0.875" r="0.375" fill="none"/>
    </g>
    <g id="Ellipse_7-35" data-name="Ellipse 7" transform="translate(866.264 254.247) rotate(180)" fill="#949494" stroke="#949494" stroke-width="1">
      <circle cx="0.875" cy="0.875" r="0.875" stroke="none"/>
      <circle cx="0.875" cy="0.875" r="0.375" fill="none"/>
    </g>
  </g>
</svg>
