<svg id="heart" xmlns="http://www.w3.org/2000/svg" width="20" height="20" viewBox="0 0 20 20">
  <rect id="Rectangle_11" data-name="Rectangle 11" width="20" height="20" fill="#fff" opacity="0"/>
  <path id="Path_26" data-name="Path 26" d="M10.333,18.167a.833.833,0,0,1-.592-.242L3.266,11.442A4.36,4.36,0,1,1,9.433,5.275l.9.9.9-.9A4.36,4.36,0,1,1,17.4,11.442l-6.475,6.483a.833.833,0,0,1-.592.242ZM6.35,5.667a2.667,2.667,0,0,0-1.9.783,2.7,2.7,0,0,0,0,3.808l5.883,5.892,5.883-5.892a2.7,2.7,0,0,0,0-3.808,2.767,2.767,0,0,0-3.8,0l-1.492,1.5a.833.833,0,0,1-1.183,0L8.25,6.45a2.667,2.667,0,0,0-1.9-.783Z" transform="translate(-0.333 -0.667)" fill="#fff"/>
</svg>
